<?xml version="1.0" encoding="UTF-8"?>
<!DOCTYPE svg PUBLIC "-//W3C//DTD SVG 1.1//EN" "http://www.w3.org/Graphics/SVG/1.1/DTD/svg11.dtd">
<!-- Creator: Corel DESIGNER 2018 (64-Bit) -->
<svg xmlns="http://www.w3.org/2000/svg" xml:space="preserve" width="1080px" height="1440px" version="1.1" style="shape-rendering:geometricPrecision; text-rendering:geometricPrecision; image-rendering:optimizeQuality; fill-rule:evenodd; clip-rule:evenodd"
viewBox="0 0 349.32 465.77"
 xmlns:xlink="http://www.w3.org/1999/xlink">
 <defs>
  <style type="text/css">
   <![CDATA[
    .fil45 {fill:#E6E7E8}
    .fil1 {fill:#CCCCCC}
    .fil2 {fill:#A7B2C9}
    .fil19 {fill:#9EB0D2}
    .fil22 {fill:#8B0F1D}
    .fil8 {fill:#A61223}
    .fil23 {fill:#B81427}
    .fil7 {fill:#CA162B}
    .fil28 {fill:#DC182E}
    .fil5 {fill:#E71D34}
    .fil21 {fill:#E92B41}
    .fil25 {fill:#EB3D51}
    .fil10 {fill:#F06A79}
    .fil27 {fill:#F27E8B}
    .fil24 {fill:#FEFEFE;fill-rule:nonzero}
    .fil15 {fill:#E6E7E8;fill-rule:nonzero}
    .fil6 {fill:#D2D3D5;fill-rule:nonzero}
    .fil9 {fill:#A9ABAE;fill-rule:nonzero}
    .fil29 {fill:#C0754E;fill-rule:nonzero}
    .fil26 {fill:#B34A38;fill-rule:nonzero}
    .fil30 {fill:#AA4B37;fill-rule:nonzero}
    .fil16 {fill:#A23D35;fill-rule:nonzero}
    .fil17 {fill:#8D877C;fill-rule:nonzero}
    .fil14 {fill:#8FABAF;fill-rule:nonzero}
    .fil31 {fill:#757576;fill-rule:nonzero}
    .fil13 {fill:#4F4C4D;fill-rule:nonzero}
    .fil0 {fill:#E6E7E8;fill-rule:nonzero}
    .fil34 {fill:#FF9F1C;fill-rule:nonzero}
    .fil41 {fill:#B24838;fill-rule:nonzero}
    .fil32 {fill:#553125;fill-rule:nonzero}
    .fil44 {fill:#FF9C1B;fill-rule:nonzero}
    .fil33 {fill:#FFEDD7;fill-rule:nonzero}
    .fil20 {fill:#C3CBDB;fill-rule:nonzero}
    .fil35 {fill:#E6E9F0;fill-rule:nonzero}
    .fil43 {fill:#6E0C17;fill-rule:nonzero}
    .fil11 {fill:#8B0F1D;fill-rule:nonzero}
    .fil42 {fill:#CA162B;fill-rule:nonzero}
    .fil12 {fill:#F06A79;fill-rule:nonzero}
    .fil18 {fill:url(#id7)}
    .fil4 {fill:url(#id8)}
    .fil36 {fill:url(#id9)}
    .fil37 {fill:url(#id10)}
    .fil3 {fill:url(#id11)}
    .fil40 {fill:url(#id12)}
    .fil39 {fill:url(#id13)}
    .fil38 {fill:url(#id14)}
   ]]>
  </style>
   <mask id="id0">
  <linearGradient id="id1" gradientUnits="userSpaceOnUse" x1="231.43" y1="448.97" x2="-33.8" y2="-75.02">
   <stop offset="0" style="stop-opacity:0; stop-color:white"/>
   <stop offset="0.0901961" style="stop-opacity:-127.137; stop-color:white"/>
   <stop offset="1" style="stop-opacity:0.278431; stop-color:white"/>
  </linearGradient>
    <rect style="fill:url(#id1)" x="2.31" y="2.31" width="344.7" height="457.18"/>
   </mask>
   <mask id="id2">
  <linearGradient id="id3" gradientUnits="userSpaceOnUse" x1="78.28" y1="215.16" x2="111.98" y2="273.54">
   <stop offset="0" style="stop-opacity:0; stop-color:white"/>
   <stop offset="1" style="stop-opacity:1; stop-color:white"/>
  </linearGradient>
    <rect style="fill:url(#id3)" x="61.42" y="158.81" width="181.88" height="105.01"/>
   </mask>
   <clipPath id="id4">
    <path d="M282.06 315.9c-0.57,-0.46 -1.05,-0.91 -1.45,-1.36 -2.19,-2.42 -4.14,-4.78 -5.81,-7.56 -2.19,-3.64 -3.55,-6.97 -4.5,-11.15 -0.11,-0.45 -1.22,-5.31 -1.59,-7.19 1.4,2 2.91,3.9 4.58,5.54 3.1,3.05 5.17,7.77 6.65,11.85 1.15,3.2 1.85,6.52 2.12,9.87l0 0z"/>
   </clipPath>
   <clipPath id="id5">
    <path d="M268.09 287.95l-1.75 -1c-1.77,-2.47 -3.84,-5.27 -5.3,-7.92l1.53 -0.88c0.53,1.48 1.17,2.92 2.03,4.24 1.17,1.81 2.36,3.7 3.63,5.55 -0.05,0.01 -0.09,0.01 -0.14,0.01l0 0z"/>
   </clipPath>
   <clipPath id="id6">
    <path d="M267.12 288.03c-0.25,-0.35 -0.51,-0.71 -0.78,-1.08l1.75 1.01c-0.32,0.02 -0.65,0.05 -0.97,0.07l0 0z"/>
   </clipPath>
  <linearGradient id="id7" gradientUnits="userSpaceOnUse" x1="261.04" y1="293.86" x2="317.29" y2="293.86">
   <stop offset="0" style="stop-opacity:1; stop-color:#3769B1"/>
   <stop offset="0.921569" style="stop-opacity:1; stop-color:#3169B1"/>
   <stop offset="1" style="stop-opacity:1; stop-color:#3169B1"/>
  </linearGradient>
  <linearGradient id="id8" gradientUnits="userSpaceOnUse" xlink:href="#id7" x1="145.62" y1="177.96" x2="190.01" y2="254.83">
  </linearGradient>
  <linearGradient id="id9" gradientUnits="userSpaceOnUse" xlink:href="#id7" x1="221.28" y1="243.3" x2="255.1" y2="301.87">
  </linearGradient>
  <linearGradient id="id10" gradientUnits="userSpaceOnUse" x1="221.28" y1="243.3" x2="255.1" y2="301.87">
   <stop offset="0" style="stop-opacity:1; stop-color:#413A2E"/>
   <stop offset="0.921569" style="stop-opacity:1; stop-color:#403A2E"/>
   <stop offset="1" style="stop-opacity:1; stop-color:#403A2E"/>
  </linearGradient>
  <linearGradient id="id11" gradientUnits="userSpaceOnUse" xlink:href="#id7" x1="145.62" y1="177.96" x2="190.01" y2="254.83">
  </linearGradient>
  <linearGradient id="id12" gradientUnits="userSpaceOnUse" x1="221.28" y1="243.3" x2="255.1" y2="301.87">
   <stop offset="0" style="stop-opacity:1; stop-color:#385669"/>
   <stop offset="0.921569" style="stop-opacity:1; stop-color:#375665"/>
   <stop offset="1" style="stop-opacity:1; stop-color:#375665"/>
  </linearGradient>
  <linearGradient id="id13" gradientUnits="userSpaceOnUse" x1="221.28" y1="243.3" x2="255.1" y2="301.87">
   <stop offset="0" style="stop-opacity:1; stop-color:#3A332C"/>
   <stop offset="0.921569" style="stop-opacity:1; stop-color:#39332D"/>
   <stop offset="1" style="stop-opacity:1; stop-color:#39332D"/>
  </linearGradient>
  <linearGradient id="id14" gradientUnits="userSpaceOnUse" x1="221.28" y1="243.3" x2="255.1" y2="301.87">
   <stop offset="0" style="stop-opacity:1; stop-color:#3A7DB5"/>
   <stop offset="0.921569" style="stop-opacity:1; stop-color:#3C7EAF"/>
   <stop offset="1" style="stop-opacity:1; stop-color:#3C7EAF"/>
  </linearGradient>
 </defs>
 <g id="Layer_x0020_1">
  <metadata id="CorelCorpID_0Corel-Layer"/>
  <polygon class="fil0" points="0,465.77 349.32,465.77 349.32,0 0,0 "/>
  <path class="fil1" style="mask:url(#id0)" d="M346.94 129.18l0 -50.1 -32.85 41.42 32.85 8.68zm-24.66 262.97l-89.68 -23.7 -40.12 50.6 89.67 23.7 40.13 -50.6zm-95.17 -25.16l-89.68 -23.7 -40.12 50.6 89.67 23.71 40.13 -50.61zm51.81 79.84l-89.67 -23.7 -28.78 36.29 108.47 0 9.98 -12.59zm-95.17 -25.16l-89.68 -23.7 -40.12 50.6 41.03 10.85 58.84 0 29.93 -37.75zm163.19 -94.07l0 -61.21 -27.62 -7.3 -40.13 50.6 67.75 17.91zm-33.12 -69.96l-89.67 -23.71 -40.13 50.61 89.68 23.7 40.12 -50.6zm33.12 103.41l0 -28.52 -70.98 -18.76 -40.13 50.6 89.68 23.7 21.43 -27.02zm-76.47 -48.73l-89.68 -23.71 -40.13 50.6 89.68 23.71 40.13 -50.6zm76.47 147.1l0 -61.21 -19.99 -5.28 -40.12 50.6 60.11 15.89zm-18.65 0l-44.7 -11.82 -9.36 11.82 54.06 0zm18.65 -66.14l0 -25.56 -16.76 21.13 16.76 4.43zm-344.56 -217.5l0 41.51 27.22 -34.32 -27.22 -7.19zm0.22 193.08l89.68 23.7 40.12 -50.6 -89.68 -23.7 -40.12 50.6zm-0.22 -61.26l0 53.15 34.85 -43.94 -34.85 -9.21zm0 66.13l0 61.21 46.54 12.3 40.12 -50.6 -86.66 -22.91zm216.74 -141.13l-89.68 -23.7 -40.13 50.6 89.68 23.71 40.13 -50.61zm-216.74 -8.64l0 12.57 81.44 21.52 40.13 -50.6 -89.68 -23.7 -31.89 40.21zm173.38 63.32l-89.68 -23.7 -40.12 50.6 89.67 23.71 40.13 -50.61zm-173.38 -45.82l0 61.21 38.08 10.06 40.13 -50.6 -78.21 -20.67zm0 -160.97l0 24.22 73.81 19.5 40.12 -50.6 -89.68 -23.7 -24.25 30.58zm0 -36.99l0 28.61 18.76 -23.65 -18.76 -4.96zm0 66.14l0 61.21 30.45 8.04 40.12 -50.6 -70.57 -18.65zm170.41 -107.26l-57.08 0 47.19 12.48 9.89 -12.48zm-75.74 0l-32.73 0 -34.45 43.45 89.67 23.71 40.13 -50.61 -62.62 -16.55zm-39.38 0l-55.29 0 0 36.19 21.99 5.81 33.3 -42zm248.16 120.87l-89.67 -23.71 -40.13 50.61 89.68 23.7 40.12 -50.6zm-95.17 -25.16l-89.68 -23.7 -40.12 50.6 89.68 23.7 40.12 -50.6zm51.81 79.84l-89.67 -23.71 -40.13 50.61 89.68 23.7 40.12 -50.6zm-95.17 -25.16l-89.67 -23.7 -40.13 50.6 89.68 23.7 40.12 -50.6zm179.64 -89.73l0 -60.66 -53.74 0 -30.46 38.41 84.2 22.25zm-60.39 -60.66l-108.47 0 -10.51 13.25 89.68 23.71 29.3 -36.96zm60.39 69.02l0 -3.43 -87.43 -23.1 -40.12 50.6 89.67 23.7 37.88 -47.77zm-92.92 -27.99l-89.68 -23.7 -40.12 50.6 89.67 23.71 40.13 -50.61zm92.92 151.91l0 -61.21 -36.08 -9.53 -40.12 50.6 76.2 20.14zm0 66.14l0 -37.21 -24.39 30.76 24.39 6.45zm0 -45.59l0 -15.62 -79.44 -20.99 -40.12 50.6 89.68 23.7 29.88 -37.69z"/>
  <polygon class="fil2" style="mask:url(#id2)" points="243.3,197.74 217.7,212.51 213.06,215.19 199.15,223.23 199.11,223.25 196.22,224.91 191.57,227.59 180.34,234.09 178.19,235.33 175.25,237.03 167.85,241.28 162.19,244.55 160.69,245.43 128.83,263.82 61.42,224.89 87.81,209.66 121.6,190.14 175.88,158.81 178.46,160.31 180.08,161.24 186.18,164.76 194.56,169.6 196.24,170.57 198.69,171.99 203.87,174.99 211.54,179.41 214.05,180.85 217.39,182.77 229.47,189.76 233.84,192.28 "/>
  <path class="fil3" d="M205.41 251.77l-1.51 -0.88 22.04 -12.72 1.5 -0.87 5.66 -3.27 7.27 -4.18 -3.82 2.2c0.07,0.53 0.16,1.06 0.24,1.6l-0.41 0.24 -13.92 8.03 -0.03 0.02 -2.89 1.66 -4.65 2.69 -9.48 5.48z"/>
  <path class="fil4" d="M240.54 229.75l2.9 -1.67 2.15 -1.25 11.23 -6.5 3.63 -2.09c0.07,0.54 0.16,1.07 0.24,1.61l-16.86 9.73c-0.06,-0.54 -0.12,-1.08 -0.18,-1.62l-0.01 0 -3.1 1.79z"/>
  <polygon class="fil5" points="306.38,202.24 306.38,242.48 301.67,245.2 279.86,257.79 276.43,259.77 257.03,270.97 254.8,272.26 253.95,272.75 247.63,276.41 236.5,282.83 235.06,283.66 194.65,306.99 194.65,266.76 225.49,248.95 227.08,248.04 235.19,243.36 241.97,239.43 243.22,238.71 245.64,237.32 260.98,228.45 264.24,226.58 276.32,219.6 280.59,217.13 "/>
  <path class="fil6" d="M280.99 257.13l-6.32 3.65c-4.67,-8.76 -8.49,-18.2 -11.18,-28.05 -0.46,-1.67 -0.88,-3.34 -1.26,-5 -0.73,-3.2 -1.33,-6.37 -1.79,-9.49l7.1 -4.09 0.01 0c0.32,3.16 0.82,6.39 1.46,9.66 0.51,2.58 1.11,5.17 1.83,7.8 2.46,8.95 5.93,17.55 10.15,25.52z"/>
  <path class="fil6" d="M257.09 270.94l-6.32 3.65c-4.67,-8.76 -8.49,-18.21 -11.18,-28.05 -0.46,-1.67 -0.88,-3.34 -1.26,-5 -0.73,-3.2 -1.33,-6.37 -1.78,-9.49l7.09 -4.09 0.01 0c0.32,3.16 0.82,6.39 1.46,9.66 0.51,2.57 1.12,5.17 1.83,7.8 2.47,8.95 5.93,17.55 10.15,25.52z"/>
  <polygon class="fil7" points="194.65,266.76 194.65,306.99 128.83,268.99 128.83,228.76 "/>
  <polygon class="fil8" points="306.38,202.24 306.38,207.36 194.65,271.87 194.65,266.76 "/>
  <path class="fil9" d="M269.01 223.81l-6.78 3.92 0 0c0.34,1.48 0.72,2.98 1.12,4.47l6.66 -3.85c-0.36,-1.52 -0.7,-3.03 -1,-4.54z"/>
  <path class="fil9" d="M245.11 237.62l-6.78 3.92 0 0c0.34,1.48 0.72,2.97 1.13,4.47l6.66 -3.85c-0.37,-1.52 -0.71,-3.03 -1.01,-4.54z"/>
  <polygon class="fil8" points="194.65,266.76 194.65,271.87 128.83,233.87 128.83,228.76 "/>
  <polygon class="fil5" points="308.53,203.48 308.53,190.48 194.09,256.56 194.09,269.56 "/>
  <polygon class="fil5" points="194.09,256.56 126.68,217.64 126.68,230.64 194.09,269.56 "/>
  <polygon class="fil10" points="308.55,190.48 282.95,205.25 278.31,207.94 264.4,215.97 264.36,215.99 261.47,217.65 256.82,220.33 245.59,226.83 243.44,228.08 240.5,229.77 233.1,234.03 227.44,237.3 225.94,238.17 194.08,256.56 126.67,217.63 153.06,202.4 186.85,182.89 241.13,151.56 243.71,153.05 245.33,153.98 251.43,157.51 259.81,162.35 261.49,163.31 263.94,164.74 269.12,167.73 276.79,172.15 279.3,173.59 282.64,175.51 294.72,182.5 299.09,185.02 "/>
  <path class="fil11" d="M141.09 268.35c-1.65,0 -3.75,-1.64 -5.1,-3.98 -1.73,-3.01 -1.8,-6.23 -0.16,-7.18 0.3,-0.17 0.65,-0.26 1.03,-0.26 1.65,0 3.75,1.64 5.1,3.99 0.85,1.47 1.33,3.04 1.34,4.42 0.02,1.33 -0.4,2.3 -1.18,2.75 -0.3,0.17 -0.65,0.26 -1.03,0.26z"/>
  <path class="fil12" d="M137.95 263.52c-1.46,-2.54 -1.73,-5.2 -0.79,-6.55l-0.3 -0.04c-0.38,0 -0.73,0.09 -1.03,0.26 -1.64,0.95 -1.57,4.17 0.16,7.18 1.35,2.34 3.45,3.98 5.1,3.98 0.38,0 0.73,-0.09 1.03,-0.26 0.26,-0.15 0.46,-0.37 0.63,-0.62 -1.6,-0.18 -3.53,-1.75 -4.8,-3.95z"/>
  <path class="fil9" d="M185.61 283.62l-14.71 -8.49c-1.09,-0.63 -2.45,0.16 -2.45,1.42l0 6.58c0,1.41 0.75,2.72 1.97,3.42l14.7 8.49c1.1,0.63 2.46,-0.16 2.46,-1.42l0 -6.58c0,-1.41 -0.75,-2.71 -1.97,-3.42z"/>
  <polygon class="fil13" points="170.45,277.28 176.66,280.86 176.66,288.07 170.45,284.48 "/>
  <polygon class="fil14" points="171.62,277.04 172.58,277.6 172.58,280.91 171.62,280.35 "/>
  <polygon class="fil14" points="173.26,285.21 174.49,285.92 174.49,287.35 173.26,286.64 "/>
  <polygon class="fil14" points="174.49,280.97 176.67,282.23 176.67,284.76 174.49,283.5 "/>
  <polygon class="fil14" points="170.82,282.32 172.41,283.24 172.41,285.09 170.82,284.17 "/>
  <polygon class="fil14" points="172.95,281.73 173.72,282.18 173.72,283.07 172.95,282.62 "/>
  <polygon class="fil14" points="173.72,279.1 174.49,279.54 174.49,280.97 173.72,280.53 "/>
  <polygon class="fil14" points="174.49,284.47 175.26,284.91 175.26,286.35 174.49,285.9 "/>
  <polygon class="fil14" points="171.26,280.78 172.03,281.22 172.03,282.12 171.26,281.67 "/>
  <polygon class="fil14" points="172.41,282.79 172.8,283.01 172.8,283.46 172.41,283.24 "/>
  <polygon class="fil14" points="173.72,281.73 174.11,281.95 174.11,282.4 173.72,282.18 "/>
  <polygon class="fil14" points="172.03,282.12 172.41,282.34 172.41,282.78 172.03,282.56 "/>
  <polygon class="fil13" points="171.45,281.15 171.84,281.37 171.84,281.81 171.45,281.59 "/>
  <polygon class="fil14" points="175.42,285.9 176.66,286.62 176.66,288.07 175.42,287.35 "/>
  <polygon class="fil13" points="175.73,286.49 176.35,286.85 176.35,287.58 175.73,287.22 "/>
  <polygon class="fil14" points="172.8,282.82 172.96,282.92 172.96,283.1 172.8,283.01 "/>
  <polygon class="fil14" points="172.64,282.54 172.8,282.64 172.8,282.82 172.64,282.73 "/>
  <polygon class="fil14" points="172.8,282.45 172.96,282.54 172.96,282.73 172.8,282.63 "/>
  <polygon class="fil14" points="173.72,283.07 174.49,283.51 174.49,284.4 173.72,283.96 "/>
  <polygon class="fil13" points="171.13,282.86 172.1,283.42 172.1,284.54 171.13,283.99 "/>
  <polygon class="fil13" points="171.13,278.38 172.1,278.93 172.1,280.06 171.13,279.5 "/>
  <polygon class="fil13" points="172.23,280.07 173.2,280.63 173.2,281.75 172.23,281.19 "/>
  <polygon class="fil13" points="175.09,282.45 176.06,283.01 176.06,284.14 175.09,283.58 "/>
  <polygon class="fil13" points="174.69,281.48 176.66,282.66 176.66,283.78 174.69,282.6 "/>
  <polygon class="fil13" points="172.27,278.67 174.25,279.85 174.25,280.97 172.27,279.79 "/>
  <polygon class="fil13" points="178.5,282.04 184.71,285.63 184.71,286.65 178.5,283.07 "/>
  <polygon class="fil13" points="178.5,284.05 184.71,287.64 184.71,288.07 178.5,284.48 "/>
  <polygon class="fil13" points="178.5,285.27 184.71,288.85 184.71,289.29 178.5,285.7 "/>
  <polygon class="fil13" points="178.5,286.48 184.71,290.07 184.71,290.5 178.5,286.91 "/>
  <polygon class="fil13" points="178.5,288.69 181.37,290.34 181.37,290.77 178.5,289.12 "/>
  <path class="fil0" d="M228.03 212.94c-3.89,-9.42 -3.18,-19.01 2.01,-27.86 5.8,-9.88 16.46,-17.63 29.78,-22.72l-8.38 -4.84c-13.18,5.75 -23.73,13.98 -29.75,24.21 -5.67,9.68 -6.84,20.19 -3.45,30.51 0.32,0.98 0.68,1.94 1.04,2.91 2.83,6.81 7.55,13.19 13.81,18.89l7.41 -4.26c-5.7,-5.08 -9.97,-10.77 -12.47,-16.84z"/>
  <path class="fil15" d="M272.43 169.64c-5.17,4.1 -12.37,8.52 -15.43,13.73 -5.68,9.68 -7.18,18.55 -3.8,28.87 0.32,0.98 0.69,1.94 1.05,2.91 0.73,1.76 1.58,3.49 2.57,5.18l4.66 -2.68 2.88 -1.66 0.04 -0.03c-0.51,-0.99 -0.98,-2 -1.4,-3.02 -3.89,-9.42 -2.84,-17.37 2.33,-26.22 2.85,-4.84 9.83,-8.92 14.76,-12.67l-7.66 -4.41z"/>
  <path class="fil6" d="M241.97 239.43c-0.65,-3.27 -1.14,-6.5 -1.46,-9.65l-0.01 0 -7.1 4.08c0.46,3.12 1.05,6.29 1.79,9.5 0.16,0.71 0.36,1.43 0.54,2.15l6.71 -3.87c-0.16,-0.74 -0.33,-1.48 -0.47,-2.21z"/>
  <path class="fil6" d="M265.87 225.62c-0.65,-3.26 -1.14,-6.49 -1.46,-9.65l-0.02 0 -7.09 4.08c0.46,3.12 1.05,6.29 1.78,9.5 0.17,0.71 0.37,1.44 0.55,2.15l6.71 -3.87c-0.16,-0.74 -0.33,-1.48 -0.47,-2.21z"/>
  <path class="fil16" d="M226.24 288.22l-0.01 -0.02c-0.39,-1.08 -0.6,-2.52 -0.71,-4.06 -0.2,-2.35 -0.2,-4.91 -0.37,-6.66 -0.38,-4.22 -0.29,-8.26 0.55,-12.44 0.47,-2.41 1.95,-4.36 4.11,-5.51 0.56,-0.31 1.26,-0.48 1.91,-0.69 0.5,-0.15 0.97,-0.33 1.34,-0.61 1.29,-0.96 1.51,-2.7 2.63,-3.78 1.57,-1.53 3.51,-2.06 5.63,-2.11 2.45,7.6 5.58,14.93 9.23,21.84l-24.31 14.04zm30.64 -17.69c-3.23,-6.15 -6,-12.66 -8.22,-19.42 0.63,-0.09 1.22,-0.15 1.71,-0.15 0.54,0 0.97,0.07 1.22,0.25 0.44,0.31 0.87,0.49 1.31,0.61 0.06,-0.36 0.1,-0.72 0.17,-1.08 0.47,-2.41 1.95,-4.36 4.11,-5.51 0.56,-0.31 1.26,-0.48 1.92,-0.69 0.49,-0.15 0.96,-0.33 1.33,-0.61 1.3,-0.97 1.51,-2.7 2.63,-3.78 0.68,-0.65 1.42,-1.12 2.21,-1.44 2.47,7.59 5.6,14.9 9.25,21.79l-1.14 0.66 -13.58 7.84c-0.01,-0.05 -0.03,-0.09 -0.04,-0.14l-2.88 1.67zm21.21 -19.23c-1.67,-3.58 -3.18,-7.27 -4.52,-11.03 2.3,1.96 6.01,1.44 6.73,2.81l-2.21 8.22z"/>
  <path class="fil17" d="M274.52 260.5c-3.65,-6.89 -6.78,-14.2 -9.25,-21.79 1.27,-0.52 2.66,-0.67 4.12,-0.67 0.01,0 0.01,0 0.01,0 1.75,0 2.74,0.96 3.83,1.93 0.11,0.1 0.23,0.2 0.34,0.3 1.34,3.76 2.85,7.45 4.52,11.03l0 7.14 -3.57 2.06z"/>
  <path class="fil17" d="M250.55 274.18c-3.65,-6.91 -6.78,-14.24 -9.23,-21.84 0.11,-0.01 0.23,-0.01 0.34,-0.01 0.12,0 0.24,0 0.36,0.01 0.02,0 0.05,0 0.07,0 0.78,0 2.27,-0.35 3.85,-0.69 0.92,-0.2 1.86,-0.4 2.72,-0.54 2.22,6.76 4.99,13.27 8.22,19.42l-6.33 3.65z"/>
  <path class="fil18" d="M317.35 316.39l-48.71 -28.11c-0.04,-0.24 -0.06,-0.37 -0.04,-0.38 -0.13,0.02 -0.25,0.03 -0.37,0.04 -1.27,-1.84 -2.46,-3.74 -3.63,-5.55 -0.86,-1.32 -1.5,-2.76 -2.03,-4.24l32.27 -18.64c0.32,1.25 0.65,2.49 1.04,3.69 1.07,3.31 1.86,6.89 3.79,9.84 2.6,4 5.28,8.46 8.7,11.8 3.1,3.05 5.16,7.76 6.64,11.85 1.5,4.14 2.23,8.47 2.25,12.83 0.01,2.18 0.32,4.6 0.09,6.87z"/>
  <path class="fil19" d="M310.91 328.21c-0.04,0 -0.07,0 -0.11,0 -1.32,-0.08 -2.61,-0.28 -3.87,-0.61 -5.88,-1.57 -19.23,-7.09 -24.87,-11.7 -0.27,-3.36 -0.97,-6.67 -2.12,-9.87 -1.48,-4.09 -3.55,-8.8 -6.65,-11.85 -1.68,-1.64 -3.18,-3.55 -4.58,-5.54 -0.03,-0.14 -0.05,-0.26 -0.07,-0.36l48.71 28.11c-0.16,1.49 -0.54,2.91 -1.39,4.18 -1.9,2.83 -5.88,4.22 -9,5.08 -2.12,0.59 5.78,2.56 3.95,2.56z"/>
  <path class="fil20" d="M325.91 322.16c-1.9,2.83 -5.88,4.22 -8.98,5.07 -2.16,0.61 -4.37,1.06 -6.59,0.97 -1.32,-0.05 -2.61,-0.25 -3.89,-0.6 -6.45,-1.72 -11.52,-6.63 -15.89,-11.47 -2.19,-2.41 -4.14,-4.76 -5.78,-7.54 -2.2,-3.65 -3.56,-6.99 -4.51,-11.17 -0.13,-0.55 -1.83,-7.89 -1.7,-7.93 -0.5,0.06 -1.01,0.1 -1.5,0.15 -0.64,-0.89 -1.33,-1.86 -2.04,-2.85 -0.86,-1.2 -1.74,-2.46 -2.54,-3.71 -0.86,-1.31 -1.63,-2.62 -2.21,-3.87 -0.24,-0.51 -0.46,-0.98 -0.62,-1.46 -0.39,-1.07 -0.6,-2.52 -0.71,-4.05 -0.21,-2.35 -0.21,-4.91 -0.37,-6.66 -0.38,-4.22 -0.29,-8.26 0.55,-12.44 0.47,-2.41 1.95,-4.36 4.11,-5.51 0.56,-0.31 1.26,-0.48 1.91,-0.7 0.5,-0.14 0.97,-0.32 1.34,-0.6 1.29,-0.97 1.51,-2.7 2.63,-3.78 1.75,-1.7 3.94,-2.17 6.33,-2.12 1.83,0.06 2.89,1.41 4.26,2.4 1.91,1.36 3.88,0.4 5.91,1.27 2.06,0.88 2.27,2.96 3.54,4.55 0.92,1.15 1.97,2.3 2.83,3.54 0.62,0.88 1.15,1.81 1.5,2.81 0.89,2.67 1.46,5.61 2.36,8.33 1.07,3.3 1.86,6.9 3.78,9.86 2.61,4 5.29,8.43 8.7,11.79 3.11,3.03 5.15,7.75 6.63,11.84 1.5,4.16 2.25,8.49 2.27,12.83 0.01,3.6 0.84,7.85 -1.32,11.05z"/>
  <path class="fil21" d="M301.99 253.65l-7.43 9.61c0,0 -3.45,15.63 -11.79,7.3 -8.33,-8.33 -9.48,-19.65 -9.48,-19.65 0,0 0.8,-1.33 1.86,-2.52 0.5,-0.14 0.97,-0.32 1.34,-0.6 1.29,-0.97 1.51,-2.7 2.63,-3.78 1.75,-1.7 3.94,-2.17 6.33,-2.12 1.83,0.06 2.89,1.41 4.26,2.4 1.91,1.36 3.88,0.4 5.91,1.27 2.06,0.88 2.27,2.96 3.54,4.55 0.92,1.15 1.97,2.3 2.83,3.54z"/>
  <path class="fil7" d="M289.27 268.97c-3.62,3.2 -6.98,6.87 -9.92,10.88 -0.86,1.17 -1.64,2.38 -2.39,3.56 -0.69,1.12 -1.35,2.25 -1.93,3.38 -0.86,-1.2 -1.74,-2.46 -2.54,-3.71 0.56,-0.98 1.17,-1.95 1.81,-2.92 0.51,-0.76 1.04,-1.51 1.58,-2.26 3.22,-4.44 6.9,-8.45 10.9,-11.96l2.49 3.03z"/>
  <path class="fil7" d="M283.9 262.54c-3.63,3.2 -6.99,6.85 -9.91,10.89 -0.86,1.17 -1.67,2.35 -2.41,3.56 -0.46,0.75 -0.9,1.48 -1.3,2.22 -0.24,-0.51 -0.46,-0.98 -0.62,-1.46 -0.39,-1.07 -0.6,-2.52 -0.71,-4.05 0.51,-0.75 1,-1.5 1.55,-2.23 3.21,-4.43 6.92,-8.45 10.92,-11.96l2.48 3.03z"/>
  <path class="fil22" d="M291.41 246.77c-2.46,-0.49 -3.78,-3.27 -6.49,-3.16 -1.82,0.07 -3.83,1.15 -4.95,2.57 -0.8,1.03 -1.39,2.23 -2.35,3.11 -0.71,0.63 -1.6,1.08 -2.17,1.84 -0.52,0.69 -1.22,4.04 -1.33,4.9 -0.84,6.41 5.99,13.02 11.45,16.49 0.87,-2.37 -0.8,-7.37 -0.78,-9.91 0.01,-1.29 -1.1,-2.54 -0.3,-3.56 0.34,-0.42 0.8,-0.73 1.28,-0.99 3.36,-1.83 7.48,-1.47 11.14,-2.61 0.96,-0.3 2.03,-0.88 2.13,-1.88 0.06,-0.57 -0.22,-1.12 -0.5,-1.61 -0.9,-1.56 -1.72,-4.68 -3.7,-4.81 -1.23,-0.09 -2.35,-0.17 -3.43,-0.38z"/>
  <path class="fil7" d="M277.62 260.58c0.96,-0.87 1.55,-2.08 2.35,-3.1 1.12,-1.43 3.13,-2.5 4.95,-2.57 1.73,-0.07 2.9,1.04 4.16,1.98 2.57,-0.57 5.3,-0.65 7.83,-1.44 0.96,-0.3 2.03,-0.88 2.13,-1.88 0.06,-0.57 -0.22,-1.12 -0.5,-1.61 -0.9,-1.56 -1.72,-4.68 -3.7,-4.81 -1.23,-0.09 -2.35,-0.17 -3.43,-0.38 -2.46,-0.49 -3.78,-3.27 -6.49,-3.16 -1.82,0.07 -3.83,1.15 -4.95,2.57 -0.8,1.03 -1.39,2.23 -2.35,3.11 -0.71,0.63 -1.6,1.08 -2.17,1.84 -0.52,0.69 -0.71,1.58 -0.82,2.44 -0.37,2.87 0.09,5.8 1.16,8.49 0.55,-0.55 1.25,-0.95 1.83,-1.48z"/>
  <path class="fil23" d="M324.25 318.51c-0.69,-0.02 -1.14,-0.61 -1.44,-1.15 -0.33,-0.57 -0.91,-0.88 -1.58,-0.96 -0.29,-0.04 -0.59,0.03 -0.88,0.09 -1.47,0.33 -2.92,0.59 -4.31,1.16 -0.98,0.41 -2.02,0.54 -2.81,1.34 -1,1 -1.61,2.32 -2.76,3.18 -1.11,0.84 -2.71,1.34 -4.09,0.97 -6.45,-1.73 -11.53,-6.64 -15.88,-11.47 -2.19,-2.42 -4.15,-4.77 -5.8,-7.55 -2.18,-3.65 -3.55,-6.98 -4.51,-11.16 -0.13,-0.54 -1.82,-7.89 -1.69,-7.92 -0.5,0.05 -1,0.09 -1.49,0.13 -2.56,-3.58 -6.07,-8.16 -7.42,-11.88 -0.99,-2.71 -0.81,-7.83 -1.07,-10.71 -0.07,-0.75 -0.03,-1.47 -0.07,-2.21 -0.11,2.21 -0.07,4.42 0.14,6.67 0.26,2.88 0.08,8 1.07,10.72 1.35,3.72 4.86,8.29 7.42,11.87 0.49,-0.04 0.99,-0.08 1.49,-0.13 -0.13,0.03 1.56,7.38 1.69,7.92 0.96,4.18 2.33,7.51 4.51,11.17 1.65,2.77 3.61,5.13 5.8,7.54 4.35,4.83 9.43,9.74 15.88,11.47 1.27,0.34 2.57,0.54 3.88,0.6 2.23,0.09 4.44,-0.36 6.59,-0.96 3.12,-0.86 7.1,-2.25 9,-5.08 1.86,-2.77 1.5,-6.32 1.36,-9.56 0.06,1.4 -0.16,3.35 -1.04,4.5 -0.41,0.54 -1.24,1.45 -1.99,1.41z"/>
  <path class="fil21" d="M273.26 259.51c-0.25,-1.64 -1.1,-8.07 0.4,-9.01 2.05,-1.28 1.48,1.86 1.52,3.04 0.14,3.58 0.7,6.83 2.17,10.2 0.28,0.64 0.6,1.26 0.96,1.86 0.8,1.28 1.8,2.43 3.05,3.28 0.18,0.11 0.36,0.23 0.48,0.4 0.19,0.28 4.34,3.48 4.32,3.81 -0.03,0.58 -11.42,-4.05 -12.9,-13.58z"/>
  <path class="fil24" d="M323.25 312.86c-0.1,0.11 -0.17,0.22 -0.26,0.33 -1.7,1.92 -5.42,3.03 -7.85,3.6 -3.31,0.75 -10.84,1.65 -20.1,-10.3 -2.41,-3.1 -4.28,-6.5 -6.12,-9.91 -1.53,-2.87 -2.78,-5.64 -3.05,-8.91 -0.35,-3.98 -0.09,-7.98 -0.16,-11.96 -0.02,-1.02 -0.08,-2.06 -0.15,-3.09 -0.09,-1.49 -0.22,-2.97 -0.42,-4.45 -0.16,-1.28 -0.47,-2.54 -0.62,-3.82 -0.27,-2.41 -0.84,-5.49 0.62,-7.65 0.73,-1.08 2.17,-1.2 3.65,-1.09 2.39,0.18 4.79,0.51 7.14,-0.11 1.08,-0.3 2.14,-0.68 3.16,-1.12 1.04,-0.45 2.1,-1.28 3.18,-1.6 1.91,-0.59 1.95,2.37 2.21,3.68 0.34,1.85 0.27,3.73 0.25,5.59l0 0.11c-0.02,0.9 0,1.79 0.09,2.68l0.02 0.15c0.02,0.22 0.04,0.46 0.04,0.69 0.03,0.26 0.05,0.52 0.05,0.77l0.02 0.18c0.06,1.36 0.07,2.71 0.27,4.06 0.02,0.14 0.06,0.29 0.08,0.44 0.47,2.66 2.85,5.22 4.55,7.41 3.3,4.31 5.67,7.34 8.48,11.99 1.3,2.14 2.36,4.41 3.42,6.67 0.62,1.33 1.24,2.68 1.48,4.13 0.62,3.63 2.21,8.32 0.02,11.53z"/>
  <path class="fil25" d="M308.4 290.79c0,0 -9,5.86 -11.63,-2.7 -2.63,-8.55 -5.7,-15.09 -5.7,-15.09 0,0 -1.45,-1.4 -5.51,-0.38 -0.09,-1.49 -0.22,-2.97 -0.42,-4.45 -0.16,-1.28 -0.47,-2.54 -0.62,-3.82 -0.27,-2.41 -0.84,-5.49 0.62,-7.65 0.73,-1.08 2.17,-1.2 3.65,-1.09 2.39,0.18 4.79,0.51 7.14,-0.11 1.08,-0.3 2.14,-0.68 3.16,-1.12 1.04,-0.45 2.1,-1.28 3.18,-1.6 1.91,-0.59 1.95,2.37 2.21,3.68 0.34,1.85 0.27,3.73 0.25,5.59l0 0.11c0.02,0.33 0.04,1.35 0.11,2.83 0.02,0.22 0.04,0.46 0.04,0.69 0.02,0.26 0.03,0.52 0.05,0.77l0.02 0.18c0.07,1.34 -1.37,1.01 -0.99,5 0.52,5.38 2.84,11.24 4.79,13.96 2.67,3.72 -0.35,5.2 -0.35,5.2z"/>
  <path class="fil26" d="M308.38 285.04c0.11,0.18 0.24,0.36 0.37,0.55 2.66,3.72 -0.35,5.2 -0.35,5.2 0,0 -0.42,0.27 -1.11,0.62 -0.35,0.16 -0.75,0.35 -1.21,0.53 -1.35,0.53 -3.08,0.97 -4.73,0.71 -0.34,-0.05 -0.67,-0.14 -1,-0.25 3.23,0.27 6.63,-1.94 6.63,-1.94 0,0 3.01,-1.46 0.34,-5.2 -1.95,-2.72 -2.97,-7.47 -3.5,-12.86 -0.02,-0.18 0.02,-0.45 0.14,-0.78l0 -0.02 4.42 13.44z"/>
  <path class="fil27" d="M287.97 272.26c-0.05,-0.73 -0.14,-1.46 -0.24,-2.19 -0.16,-1.28 -0.47,-2.54 -0.62,-3.82 -0.27,-2.41 -0.84,-5.49 0.62,-7.65 0.73,-1.08 2.18,-1.2 3.66,-1.09 0.29,0.01 0.6,0.05 0.89,0.07 -0.15,-0.77 -0.86,-1.68 -1.48,-1.81l-0.13 -0.02c-0.62,-0.03 -1.24,-0.09 -1.88,-0.14 -1.48,-0.11 -2.92,0.01 -3.65,1.09 -1.46,2.16 -0.89,5.24 -0.62,7.65 0.15,1.28 0.46,2.54 0.62,3.82 0.2,1.48 0.33,2.96 0.42,4.45l2.41 -0.36z"/>
  <path class="fil28" d="M287.73 270.07c-0.16,-1.28 -0.47,-2.54 -0.62,-3.82 -0.27,-2.39 -0.82,-5.44 0.59,-7.6 -0.19,-1.33 -0.55,-2.87 -1.9,-2.58 -0.26,0.16 -0.48,0.37 -0.66,0.63 -1.46,2.16 -0.89,5.24 -0.62,7.65 0.15,1.28 0.46,2.54 0.62,3.82 0.2,1.48 0.33,2.96 0.42,4.45l2.41 -0.36c-0.05,-0.73 -0.14,-1.46 -0.24,-2.19z"/>
  <path class="fil27" d="M304.24 254.93c-0.86,0.4 -1.72,0.99 -2.56,1.35 -0.45,0.2 -0.91,0.39 -1.39,0.55 -0.62,-1.44 -1.27,-2.03 -1.64,-2.26 0.15,-0.06 0.29,-0.13 0.44,-0.19 1.04,-0.45 2.1,-1.28 3.18,-1.6 1.33,-0.41 1.75,0.89 1.97,2.15z"/>
  <path class="fil26" d="M299.37 289.99c-2.63,-8.54 -5.71,-15.09 -5.71,-15.09 0,0 -1.61,-1.87 -2.59,-1.9 1.09,2.53 3.91,9.27 5.7,15.09 0.81,2.64 2.23,3.9 3.8,4.39 -0.47,-0.64 -0.88,-1.46 -1.2,-2.49z"/>
  <path class="fil29" d="M290.17 277.84c-0.49,-0.08 -1.04,-0.68 -1.33,-1.44 -0.36,-0.98 -0.23,-1.94 0.31,-2.14 0.1,-0.04 0.21,-0.05 0.32,-0.03 0.49,0.08 1.04,0.67 1.32,1.44 0.18,0.48 0.25,0.97 0.18,1.38 -0.06,0.4 -0.23,0.67 -0.48,0.76 -0.1,0.04 -0.21,0.05 -0.32,0.03z"/>
  <path class="fil30" d="M289.95 277.81c-0.46,-0.08 -0.97,-0.63 -1.24,-1.35 -0.34,-0.92 -0.21,-1.82 0.29,-2.01 0.09,-0.03 0.19,-0.04 0.3,-0.03 0.46,0.08 0.97,0.64 1.24,1.35 0.17,0.45 0.23,0.91 0.17,1.3 -0.06,0.37 -0.22,0.62 -0.46,0.71 -0.09,0.04 -0.19,0.05 -0.3,0.03z"/>
  <path class="fil31" d="M289.87 277.37c-0.34,-0.06 -0.72,-0.47 -0.92,-1 -0.26,-0.68 -0.16,-1.35 0.21,-1.49l0.22 -0.02c0.35,0.06 0.72,0.47 0.92,1 0.13,0.34 0.17,0.68 0.13,0.96 -0.04,0.28 -0.16,0.46 -0.34,0.53l-0.22 0.02z"/>
  <path class="fil32" d="M289.38 276.26c-0.21,-0.57 -0.17,-1.13 0.06,-1.38l-0.06 -0.02 -0.22 0.02c-0.37,0.14 -0.47,0.81 -0.21,1.49 0.2,0.53 0.58,0.94 0.92,1l0.22 -0.02 0.15 -0.11c-0.32,-0.09 -0.67,-0.48 -0.86,-0.98z"/>
  <path class="fil29" d="M292.42 284.47c-0.49,-0.09 -1.04,-0.68 -1.32,-1.44 -0.37,-0.98 -0.23,-1.94 0.3,-2.14 0.1,-0.04 0.21,-0.05 0.32,-0.03 0.49,0.08 1.04,0.67 1.32,1.44 0.18,0.48 0.25,0.97 0.18,1.38 -0.06,0.39 -0.23,0.66 -0.48,0.76 -0.1,0.04 -0.21,0.04 -0.32,0.03z"/>
  <path class="fil30" d="M292.2 284.44c-0.46,-0.08 -0.97,-0.63 -1.23,-1.35 -0.35,-0.92 -0.22,-1.82 0.28,-2.01 0.1,-0.04 0.2,-0.04 0.3,-0.03 0.46,0.08 0.97,0.63 1.24,1.35 0.17,0.45 0.23,0.91 0.17,1.3 -0.06,0.37 -0.22,0.62 -0.46,0.71 -0.09,0.04 -0.19,0.05 -0.3,0.03z"/>
  <path class="fil31" d="M292.12 284c-0.34,-0.06 -0.72,-0.47 -0.92,-1 -0.25,-0.68 -0.16,-1.35 0.21,-1.49l0.23 -0.02c0.34,0.06 0.72,0.47 0.91,1 0.13,0.34 0.18,0.68 0.13,0.96 -0.04,0.28 -0.16,0.46 -0.34,0.53l-0.22 0.02z"/>
  <path class="fil32" d="M291.64 282.89c-0.22,-0.57 -0.18,-1.13 0.06,-1.38l-0.06 -0.02 -0.23 0.02c-0.37,0.14 -0.46,0.81 -0.21,1.49 0.2,0.53 0.58,0.94 0.92,1l0.22 -0.02 0.15 -0.11c-0.32,-0.09 -0.67,-0.48 -0.85,-0.98z"/>
  <path class="fil29" d="M294.45 289.88c-0.49,-0.08 -1.03,-0.67 -1.32,-1.44 -0.37,-0.98 -0.23,-1.94 0.31,-2.14 0.1,-0.04 0.2,-0.05 0.32,-0.03 0.49,0.08 1.03,0.68 1.32,1.44 0.18,0.48 0.24,0.97 0.18,1.38 -0.06,0.4 -0.24,0.67 -0.49,0.76 -0.1,0.04 -0.2,0.05 -0.32,0.03z"/>
  <path class="fil30" d="M294.24 289.85c-0.46,-0.08 -0.97,-0.63 -1.24,-1.35 -0.35,-0.92 -0.22,-1.82 0.29,-2.01 0.09,-0.03 0.19,-0.04 0.3,-0.02 0.46,0.07 0.97,0.63 1.24,1.35 0.17,0.45 0.23,0.91 0.17,1.29 -0.06,0.37 -0.22,0.63 -0.46,0.71 -0.09,0.04 -0.19,0.05 -0.3,0.03z"/>
  <path class="fil31" d="M294.15 289.41c-0.34,-0.05 -0.71,-0.46 -0.91,-1 -0.26,-0.68 -0.16,-1.35 0.21,-1.49l0.22 -0.01c0.34,0.05 0.72,0.46 0.92,0.99 0.13,0.34 0.17,0.68 0.13,0.97 -0.05,0.27 -0.17,0.46 -0.34,0.52l-0.23 0.02z"/>
  <path class="fil32" d="M293.67 288.3c-0.22,-0.57 -0.18,-1.13 0.06,-1.38l-0.06 -0.01 -0.22 0.01c-0.37,0.14 -0.47,0.81 -0.21,1.49 0.2,0.54 0.64,0.99 0.99,1.05l0.43 -0.15c-0.33,-0.09 -0.8,-0.51 -0.99,-1.01z"/>
  <path class="fil29" d="M297.15 294.82c-0.49,0.01 -1.13,-0.47 -1.56,-1.17 -0.54,-0.9 -0.58,-1.87 -0.09,-2.16 0.09,-0.06 0.2,-0.09 0.31,-0.09 0.5,-0.01 1.14,0.47 1.56,1.17 0.27,0.44 0.42,0.91 0.43,1.33 0.02,0.4 -0.1,0.69 -0.34,0.83 -0.09,0.06 -0.19,0.09 -0.31,0.09z"/>
  <path class="fil30" d="M296.94 294.83c-0.47,0.01 -1.07,-0.44 -1.46,-1.1 -0.51,-0.84 -0.55,-1.75 -0.09,-2.03 0.08,-0.05 0.18,-0.07 0.29,-0.08 0.47,-0.01 1.07,0.45 1.46,1.1 0.25,0.42 0.4,0.86 0.41,1.25 0.01,0.37 -0.1,0.65 -0.32,0.78 -0.08,0.05 -0.18,0.08 -0.29,0.08z"/>
  <path class="fil31" d="M296.78 294.41c-0.35,0.01 -0.79,-0.32 -1.09,-0.81 -0.38,-0.62 -0.4,-1.3 -0.06,-1.5l0.21 -0.06c0.35,-0.01 0.79,0.33 1.09,0.81 0.18,0.31 0.29,0.64 0.3,0.92 0.01,0.28 -0.08,0.49 -0.24,0.59l-0.21 0.05z"/>
  <path class="fil32" d="M296.1 293.41c-0.32,-0.52 -0.39,-1.08 -0.2,-1.37l-0.06 0 -0.21 0.06c-0.34,0.2 -0.32,0.88 0.06,1.5 0.3,0.49 0.74,0.82 1.09,0.81l0.21 -0.05 0.13 -0.14c-0.33,-0.03 -0.74,-0.35 -1.02,-0.81z"/>
  <path class="fil29" d="M305.43 269.4c0.48,0.12 0.97,0.75 1.2,1.54 0.29,1 0.08,1.95 -0.48,2.11 -0.1,0.03 -0.2,0.03 -0.32,0 -0.48,-0.12 -0.97,-0.75 -1.2,-1.54 -0.14,-0.49 -0.17,-0.99 -0.07,-1.39 0.09,-0.39 0.28,-0.64 0.55,-0.72 0.1,-0.03 0.2,-0.03 0.32,0z"/>
  <path class="fil30" d="M305.64 269.45c0.45,0.11 0.91,0.7 1.13,1.44 0.27,0.94 0.07,1.83 -0.45,1.98 -0.1,0.03 -0.2,0.03 -0.3,0 -0.45,-0.11 -0.92,-0.7 -1.13,-1.44 -0.13,-0.46 -0.16,-0.93 -0.07,-1.31 0.09,-0.36 0.27,-0.6 0.52,-0.67 0.09,-0.03 0.19,-0.03 0.3,0z"/>
  <path class="fil31" d="M305.69 269.89c0.33,0.08 0.68,0.52 0.83,1.07 0.2,0.7 0.05,1.36 -0.33,1.47l-0.22 0c-0.34,-0.09 -0.68,-0.52 -0.84,-1.07 -0.1,-0.34 -0.11,-0.69 -0.05,-0.97 0.07,-0.27 0.2,-0.45 0.38,-0.5l0.23 0z"/>
  <path class="fil32" d="M306.08 271.03c0.17,0.59 0.09,1.15 -0.17,1.38l0.06 0.02 0.22 0c0.38,-0.11 0.53,-0.77 0.33,-1.47 -0.15,-0.55 -0.5,-0.99 -0.83,-1.07l-0.23 0 -0.16 0.1c0.32,0.11 0.63,0.53 0.78,1.04z"/>
  <path class="fil29" d="M311.28 286.39c0.5,0.05 1.07,0.61 1.41,1.35 0.43,0.96 0.35,1.93 -0.17,2.16 -0.1,0.04 -0.21,0.06 -0.32,0.05 -0.5,-0.06 -1.08,-0.61 -1.41,-1.36 -0.21,-0.47 -0.3,-0.95 -0.27,-1.37 0.04,-0.39 0.2,-0.67 0.44,-0.78 0.1,-0.05 0.21,-0.06 0.32,-0.05z"/>
  <path class="fil30" d="M311.5 286.41c0.46,0.04 1,0.57 1.32,1.26 0.4,0.9 0.32,1.81 -0.17,2.03 -0.09,0.04 -0.19,0.05 -0.3,0.04 -0.46,-0.05 -1,-0.57 -1.31,-1.27 -0.2,-0.44 -0.29,-0.89 -0.25,-1.28 0.03,-0.37 0.18,-0.64 0.41,-0.74 0.09,-0.04 0.19,-0.06 0.3,-0.04z"/>
  <path class="fil31" d="M311.61 286.84c0.34,0.03 0.74,0.42 0.97,0.94 0.3,0.66 0.25,1.33 -0.12,1.5l-0.22 0.03c-0.34,-0.04 -0.74,-0.42 -0.97,-0.94 -0.15,-0.33 -0.22,-0.66 -0.19,-0.95 0.03,-0.28 0.14,-0.47 0.31,-0.55l0.22 -0.03z"/>
  <path class="fil32" d="M312.16 287.91c0.25,0.56 0.25,1.13 0.02,1.39l0.06 0.01 0.22 -0.03c0.37,-0.17 0.42,-0.84 0.12,-1.5 -0.23,-0.52 -0.63,-0.91 -0.97,-0.94l-0.22 0.03 -0.15 0.12c0.33,0.07 0.7,0.44 0.92,0.92z"/>
  <path class="fil29" d="M309.76 280.93c0.49,0.1 1.01,0.71 1.26,1.49 0.33,0.99 0.16,1.94 -0.39,2.12 -0.09,0.04 -0.2,0.04 -0.32,0.02 -0.48,-0.1 -1,-0.71 -1.26,-1.49 -0.16,-0.49 -0.21,-0.98 -0.13,-1.39 0.08,-0.39 0.26,-0.65 0.52,-0.74 0.1,-0.03 0.21,-0.03 0.32,-0.01z"/>
  <path class="fil30" d="M309.97 280.97c0.46,0.09 0.95,0.66 1.19,1.39 0.31,0.93 0.14,1.83 -0.37,2 -0.09,0.03 -0.19,0.03 -0.3,0.01 -0.45,-0.09 -0.94,-0.67 -1.18,-1.39 -0.16,-0.46 -0.2,-0.92 -0.12,-1.31 0.07,-0.36 0.24,-0.61 0.48,-0.69 0.09,-0.03 0.19,-0.04 0.3,-0.01z"/>
  <path class="fil31" d="M310.04 281.41c0.34,0.07 0.7,0.49 0.88,1.03 0.23,0.69 0.11,1.35 -0.27,1.48l-0.22 0.01c-0.34,-0.07 -0.71,-0.49 -0.88,-1.03 -0.12,-0.34 -0.15,-0.69 -0.09,-0.97 0.05,-0.27 0.18,-0.45 0.36,-0.51l0.22 -0.01z"/>
  <path class="fil32" d="M310.48 282.53c0.19,0.58 0.13,1.14 -0.12,1.38l0.07 0.02 0.22 -0.01c0.38,-0.13 0.5,-0.79 0.27,-1.48 -0.18,-0.54 -0.54,-0.96 -0.88,-1.03l-0.22 0.01 -0.16 0.1c0.32,0.1 0.65,0.5 0.82,1.01z"/>
  <path class="fil29" d="M307.79 275.58c0.49,0.07 1.05,0.65 1.35,1.41 0.38,0.98 0.26,1.94 -0.27,2.15 -0.1,0.04 -0.2,0.05 -0.32,0.03 -0.49,-0.07 -1.05,-0.65 -1.35,-1.41 -0.19,-0.48 -0.26,-0.97 -0.2,-1.38 0.05,-0.39 0.22,-0.67 0.47,-0.77 0.1,-0.04 0.21,-0.05 0.32,-0.03z"/>
  <path class="fil30" d="M308 275.61c0.46,0.06 0.99,0.61 1.27,1.32 0.36,0.91 0.25,1.82 -0.25,2.01 -0.09,0.04 -0.2,0.05 -0.3,0.04 -0.46,-0.07 -0.98,-0.62 -1.27,-1.33 -0.17,-0.45 -0.24,-0.91 -0.19,-1.29 0.05,-0.37 0.21,-0.63 0.44,-0.72 0.1,-0.04 0.2,-0.05 0.3,-0.03z"/>
  <path class="fil31" d="M308.1 276.04c0.34,0.05 0.72,0.46 0.93,0.98 0.27,0.68 0.19,1.35 -0.18,1.5l-0.22 0.02c-0.35,-0.05 -0.73,-0.46 -0.94,-0.98 -0.13,-0.34 -0.18,-0.68 -0.14,-0.96 0.03,-0.28 0.15,-0.47 0.32,-0.54l0.23 -0.02z"/>
  <path class="fil32" d="M308.6 277.14c0.23,0.57 0.2,1.13 -0.04,1.38l0.07 0.02 0.22 -0.02c0.37,-0.15 0.45,-0.82 0.18,-1.5 -0.21,-0.52 -0.59,-0.93 -0.93,-0.98l-0.23 0.02 -0.14 0.11c0.32,0.09 0.67,0.47 0.87,0.97z"/>
  <path class="fil33" d="M300.29 256.83c-0.58,0.22 -1.16,0.4 -1.77,0.57 -2.06,0.54 -4.14,0.36 -6.24,0.18 -0.15,-0.77 -0.86,-1.68 -1.48,-1.81l-0.13 -0.02c-0.23,0 0.57,-0.42 0.57,-0.42 6.66,-1.28 7.05,-0.93 7.05,-0.93 0,0 0.12,0.02 0.36,0.17 0.37,0.23 1.02,0.82 1.64,2.26z"/>
  <path class="fil34" d="M300.57 266.87l-3.03 1.37 -4.73 0.46c0,0 0.16,-7.25 -0.51,-11.05l-0.02 -0.07c2.1,0.18 4.18,0.36 6.24,-0.18 0.61,-0.17 1.19,-0.35 1.77,-0.57 0.57,1.3 0.28,10.04 0.28,10.04z"/>
  <path class="fil24" d="M289.52 274.9c0,0 9.37,-2.06 18.35,1.16 1.33,0.96 0.76,2.48 0.76,2.48 0,0 -9.14,-2.21 -18.67,-1.25 -0.7,-1.09 -0.44,-2.39 -0.44,-2.39z"/>
  <path class="fil35" d="M293.59 286.9c0,0 8.66,-1.64 18.25,-0.09 1.33,0.96 0.3,2.48 0.3,2.48 0,0 -8.66,-0.94 -18.19,0.02 -0.7,-1.09 -0.36,-2.41 -0.36,-2.41z"/>
  <path class="fil24" d="M295.63 292.1c0,0 4.91,-6.36 14.55,-10.59 1.32,0.95 0.29,2.47 0.29,2.47 0,0 -3.86,1.72 -13.57,10.35 -0.71,-1.09 -1.27,-2.23 -1.27,-2.23z"/>
  <path class="fil35" d="M293.45 286.92c0,0 4.82,-6.6 14.46,-10.83 1.32,0.95 0.72,2.45 0.72,2.45 0,0 -4.96,2.14 -14.68,10.77 -0.7,-1.09 -0.5,-2.39 -0.5,-2.39z"/>
  <path class="fil35" d="M291.49 281.54c0,0 4.24,-7.43 13.88,-11.66 1.32,0.95 0.82,2.28 0.82,2.28 0,0 -4.06,3.22 -13.77,11.85 -0.71,-1.09 -0.93,-2.47 -0.93,-2.47z"/>
  <path class="fil24" d="M289.38 274.86c0,0 5.43,-4.11 15.99,-4.98 1.33,0.95 0.82,2.55 0.82,2.55 0,0 -7.07,0.38 -16.1,4.92 -0.71,-1.09 -0.71,-2.49 -0.71,-2.49z"/>
  <path class="fil24" d="M291.56 281.5c0,0 9.03,-1.5 18.62,0.05 1.32,0.95 0.29,2.43 0.29,2.43 0,0 -8.68,-0.96 -18.21,0.01 -0.7,-1.09 -0.7,-2.49 -0.7,-2.49z"/>
  <path class="fil36" d="M268.33 288.1l-0.24 -0.14c0.05,-0.01 0.09,-0.01 0.14,-0.02 0.03,0.06 0.07,0.11 0.1,0.16zm-1.99 -1.15l-18.49 -10.68 2.92 -1.68c0,0 0,0 0,0l6.32 -3.65c0,0 0,0 0,0l2.8 -1.62c0.28,1.09 0.58,2.17 0.91,3.23 0.6,1.83 1.11,3.75 1.77,5.6l-1.53 0.88c1.46,2.65 3.53,5.45 5.3,7.92z"/>
  <path class="fil2" d="M275.83 337.55c-0.03,0 -0.07,0 -0.11,0 -1.31,-0.07 -2.61,-0.27 -3.87,-0.6 -6.46,-1.73 -21.97,-8.24 -26.31,-13.06 -2.19,-2.43 -4.15,-4.78 -5.81,-7.56 -2.19,-3.65 -3.56,-6.97 -4.51,-11.15 -0.12,-0.55 -1.8,-7.91 -1.7,-7.93 -0.49,0.06 -0.98,0.09 -1.47,0.13 -1.84,-2.58 -4.19,-5.67 -5.86,-8.6l8.87 -5.12 1.44 -0.83 11.13 -6.42 0.22 -0.14 18.49 10.68c0.27,0.37 0.53,0.73 0.78,1.08 0.32,-0.02 0.65,-0.05 0.97,-0.07l0.24 0.14c0.13,0.18 0.26,0.36 0.38,0.54 0.37,1.88 1.48,6.75 1.59,7.19 0.95,4.18 2.32,7.5 4.51,11.15 1.66,2.78 3.61,5.14 5.8,7.56 0.4,0.44 0.89,0.89 1.45,1.36 0.08,0.98 0.12,1.98 0.12,2.97 0.02,3.6 0.86,7.83 -1.29,11.05 -1.9,2.83 -5.88,4.21 -9,5.07 -2.12,0.59 5.77,2.56 3.94,2.56z"/>
  <path class="fil37" d="M226.19 288.78c-0.08,-0.13 -0.15,-0.27 -0.23,-0.4l0.28 -0.16 0.05 0.13 0.22 -0.13 2.23 -1.28 19.4 -11.21 2.47 -1.43c0.06,0.1 0.11,0.2 0.16,0.29l-2.92 1.68 -0.22 0.14 -11.13 6.42 -1.44 0.83 -8.87 5.12zm30.9 -17.84c-0.05,-0.1 -0.1,-0.19 -0.15,-0.29l2.86 -1.65c0.03,0.11 0.06,0.22 0.09,0.32l-2.8 1.62z"/>
  <path class="fil38" d="M250.77 274.59l0 0c-0.05,-0.09 -0.1,-0.19 -0.16,-0.29l0.96 -0.55 5.37 -3.1c0.05,0.1 0.1,0.19 0.15,0.29 0,0 0,0 0,0l-6.32 3.65z"/>
  <path class="fil39" d="M226.29 288.35l-0.05 -0.13 24.31 -14.04c0.02,0.04 0.04,0.08 0.06,0.12l-2.47 1.43 -19.4 11.21 -2.23 1.28 -0.22 0.13zm30.65 -17.7c-0.02,-0.04 -0.04,-0.08 -0.06,-0.12l2.88 -1.67c0.01,0.05 0.03,0.09 0.04,0.14l-2.86 1.65z"/>
  <path class="fil40" d="M250.61 274.3c-0.02,-0.04 -0.04,-0.08 -0.06,-0.12l6.33 -3.65c0.02,0.04 0.04,0.08 0.06,0.12l-5.37 3.1 -0.96 0.55z"/>
  <g style="clip-path:url(#id4)">
   <image x="267.65" y="287.74" width="15.06" height="28.98" xlink:href="bg_Images\bg_ImgID1.png"/>
  </g>
  <g style="clip-path:url(#id5)">
   <image x="260.07" y="277.05" width="9.27" height="11.83" xlink:href="bg_Images\bg_ImgID2.png"/>
  </g>
  <g style="clip-path:url(#id6)">
   <image x="265.42" y="286.07" width="3.36" height="2.81" xlink:href="bg_Images\bg_ImgID3.png"/>
  </g>
  <path class="fil20" d="M290.84 331.5c-1.9,2.83 -5.88,4.22 -8.99,5.08 -2.15,0.6 -4.36,1.06 -6.59,0.97 -1.31,-0.06 -2.61,-0.26 -3.89,-0.6 -6.44,-1.72 -11.52,-6.63 -15.88,-11.47 -2.19,-2.41 -4.15,-4.77 -5.79,-7.54 -2.19,-3.65 -3.56,-6.99 -4.51,-11.18 -0.13,-0.54 -1.82,-7.88 -1.7,-7.92 -0.49,0.06 -1,0.09 -1.49,0.15 -0.64,-0.9 -1.34,-1.87 -2.05,-2.85 -0.86,-1.21 -1.73,-2.47 -2.54,-3.71 -0.85,-1.31 -1.62,-2.63 -2.21,-3.87 -0.23,-0.51 -0.45,-0.99 -0.62,-1.46 -0.38,-1.08 -0.6,-2.52 -0.71,-4.05 -0.2,-2.36 -0.2,-4.92 -0.36,-6.67 -0.39,-4.22 -0.3,-8.25 0.54,-12.43 0.48,-2.41 1.96,-4.37 4.11,-5.52 0.57,-0.31 1.26,-0.47 1.92,-0.69 0.49,-0.15 0.97,-0.33 1.33,-0.6 1.3,-0.97 1.52,-2.7 2.63,-3.78 1.75,-1.7 3.94,-2.17 6.34,-2.12 1.82,0.06 2.88,1.41 4.25,2.39 1.92,1.37 3.89,0.4 5.92,1.28 2.06,0.88 2.26,2.96 3.54,4.55 0.91,1.15 1.97,2.3 2.83,3.54 0.62,0.88 1.15,1.81 1.5,2.81 0.89,2.67 1.46,5.61 2.35,8.33 1.08,3.3 1.86,6.9 3.78,9.86 2.61,4 5.3,8.43 8.71,11.79 3.1,3.03 5.15,7.74 6.63,11.83 1.5,4.17 2.24,8.49 2.26,12.84 0.02,3.6 0.84,7.85 -1.31,11.04z"/>
  <path class="fil21" d="M266.92 263l-7.43 9.6c0,0 -3.45,15.63 -11.8,7.31 -8.32,-8.33 -9.47,-19.65 -9.47,-19.65 0,0 0.8,-1.33 1.86,-2.52 0.49,-0.15 0.97,-0.33 1.33,-0.6 1.3,-0.97 1.52,-2.7 2.63,-3.78 1.75,-1.7 3.94,-2.17 6.34,-2.12 1.82,0.06 2.88,1.41 4.25,2.39 1.92,1.37 3.89,0.4 5.92,1.28 2.06,0.88 2.26,2.96 3.54,4.55 0.91,1.15 1.97,2.3 2.83,3.54z"/>
  <path class="fil7" d="M254.19 278.32c-3.61,3.19 -6.97,6.86 -9.91,10.88 -0.86,1.17 -1.65,2.37 -2.39,3.56 -0.7,1.11 -1.35,2.25 -1.94,3.38 -0.86,-1.21 -1.73,-2.47 -2.54,-3.71 0.57,-0.98 1.17,-1.95 1.81,-2.92 0.51,-0.77 1.04,-1.51 1.59,-2.26 3.21,-4.44 6.9,-8.46 10.9,-11.96l2.48 3.03z"/>
  <path class="fil7" d="M248.82 271.89c-3.63,3.2 -6.99,6.85 -9.91,10.88 -0.86,1.17 -1.66,2.36 -2.41,3.56 -0.46,0.75 -0.89,1.48 -1.3,2.23 -0.23,-0.51 -0.45,-0.99 -0.62,-1.46 -0.38,-1.08 -0.6,-2.52 -0.71,-4.05 0.51,-0.75 1.01,-1.5 1.55,-2.23 3.22,-4.44 6.92,-8.45 10.92,-11.96l2.48 3.03z"/>
  <path class="fil22" d="M256.33 256.11c-2.45,-0.48 -3.78,-3.26 -6.49,-3.15 -1.82,0.07 -3.83,1.14 -4.95,2.57 -0.8,1.02 -1.38,2.23 -2.35,3.1 -0.7,0.64 -1.59,1.08 -2.16,1.84 -0.52,0.7 -1.22,4.05 -1.34,4.91 -0.83,6.41 6,13.01 11.46,16.49 0.87,-2.38 -0.8,-7.38 -0.79,-9.91 0.01,-1.3 -1.09,-2.55 -0.29,-3.56 0.33,-0.42 0.8,-0.73 1.27,-0.99 3.37,-1.84 7.49,-1.47 11.14,-2.61 0.97,-0.3 2.04,-0.89 2.14,-1.89 0.06,-0.57 -0.22,-1.11 -0.51,-1.61 -0.9,-1.55 -1.71,-4.67 -3.7,-4.81 -1.22,-0.08 -2.34,-0.16 -3.43,-0.38z"/>
  <path class="fil7" d="M242.54 269.93c0.97,-0.87 1.55,-2.08 2.35,-3.1 1.12,-1.43 3.13,-2.51 4.95,-2.58 1.74,-0.06 2.91,1.05 4.17,1.99 2.56,-0.57 5.3,-0.66 7.82,-1.44 0.97,-0.3 2.04,-0.89 2.14,-1.89 0.06,-0.57 -0.22,-1.11 -0.51,-1.61 -0.9,-1.55 -1.71,-4.67 -3.7,-4.81 -1.22,-0.08 -2.34,-0.16 -3.43,-0.38 -2.45,-0.48 -3.78,-3.26 -6.49,-3.15 -1.82,0.07 -3.83,1.14 -4.95,2.57 -0.8,1.02 -1.38,2.23 -2.35,3.1 -0.7,0.64 -1.59,1.08 -2.16,1.84 -0.52,0.7 -0.71,1.58 -0.82,2.44 -0.38,2.88 0.08,5.81 1.16,8.49 0.55,-0.54 1.24,-0.95 1.82,-1.47z"/>
  <path class="fil23" d="M289.17 327.86c-0.68,-0.03 -1.13,-0.62 -1.44,-1.15 -0.32,-0.57 -0.9,-0.88 -1.57,-0.96 -0.3,-0.04 -0.6,0.02 -0.89,0.09 -1.46,0.33 -2.92,0.58 -4.3,1.16 -0.98,0.41 -2.02,0.54 -2.82,1.34 -0.99,1 -1.6,2.31 -2.75,3.18 -1.12,0.84 -2.72,1.33 -4.09,0.97 -6.45,-1.73 -11.54,-6.64 -15.89,-11.47 -2.18,-2.42 -4.14,-4.78 -5.8,-7.55 -2.18,-3.65 -3.55,-6.98 -4.51,-11.16 -0.12,-0.55 -1.81,-7.9 -1.69,-7.92 -0.49,0.04 -0.99,0.08 -1.49,0.13 -2.55,-3.59 -6.06,-8.16 -7.42,-11.88 -0.99,-2.71 -0.81,-7.84 -1.07,-10.71 -0.07,-0.75 -0.03,-1.47 -0.06,-2.21 -0.11,2.2 -0.07,4.41 0.13,6.67 0.26,2.88 0.08,8 1.07,10.71 1.36,3.72 4.87,8.3 7.42,11.88 0.5,-0.04 1,-0.08 1.49,-0.13 -0.12,0.03 1.57,7.38 1.69,7.92 0.96,4.18 2.33,7.51 4.51,11.16 1.66,2.78 3.62,5.13 5.81,7.55 4.34,4.83 9.43,9.74 15.88,11.47 1.27,0.34 2.57,0.54 3.88,0.6 2.22,0.09 4.44,-0.37 6.59,-0.96 3.11,-0.87 7.09,-2.25 8.99,-5.08 1.87,-2.78 1.51,-6.32 1.36,-9.56 0.06,1.4 -0.16,3.34 -1.03,4.49 -0.41,0.54 -1.24,1.45 -2,1.42z"/>
  <path class="fil21" d="M238.19 268.86c-0.26,-1.64 -1.11,-8.08 0.4,-9.02 2.05,-1.28 1.47,1.87 1.52,3.04 0.13,3.58 0.69,6.84 2.16,10.2 0.28,0.64 0.6,1.27 0.97,1.86 0.79,1.29 1.8,2.44 3.05,3.28 0.17,0.12 0.36,0.24 0.47,0.41 0.19,0.27 4.34,3.48 4.32,3.81 -0.03,0.58 -11.41,-4.05 -12.89,-13.58z"/>
  <path class="fil24" d="M288.17 322.21c-0.09,0.11 -0.16,0.22 -0.25,0.33 -1.7,1.91 -5.43,3.03 -7.86,3.6 -3.3,0.74 -10.83,1.65 -20.1,-10.3 -2.4,-3.1 -4.27,-6.5 -6.11,-9.92 -1.54,-2.86 -2.78,-5.64 -3.05,-8.9 -0.35,-3.99 -0.09,-7.98 -0.17,-11.96 -0.02,-1.03 -0.07,-2.07 -0.14,-3.09 -0.09,-1.5 -0.22,-2.98 -0.42,-4.46 -0.17,-1.27 -0.48,-2.53 -0.62,-3.81 -0.28,-2.41 -0.84,-5.5 0.62,-7.65 0.73,-1.08 2.17,-1.21 3.65,-1.1 2.39,0.18 4.78,0.51 7.14,-0.11 1.07,-0.29 2.13,-0.67 3.16,-1.11 1.04,-0.46 2.1,-1.28 3.17,-1.61 1.92,-0.58 1.96,2.38 2.21,3.69 0.35,1.84 0.28,3.73 0.26,5.59l0 0.11c-0.02,0.89 0,1.79 0.09,2.68l0.02 0.15c0.01,0.22 0.03,0.45 0.03,0.69 0.04,0.26 0.06,0.51 0.06,0.77l0.02 0.18c0.05,1.35 0.07,2.7 0.27,4.05 0.02,0.15 0.06,0.3 0.07,0.44 0.48,2.67 2.86,5.22 4.56,7.42 3.3,4.31 5.67,7.33 8.48,11.99 1.3,2.14 2.36,4.4 3.41,6.67 0.63,1.33 1.25,2.68 1.48,4.12 0.62,3.64 2.21,8.32 0.02,11.54z"/>
  <path class="fil25" d="M273.33 300.14c0,0 -9,5.86 -11.63,-2.71 -2.63,-8.54 -5.71,-15.08 -5.71,-15.08 0,0 -1.44,-1.4 -5.5,-0.38 -0.09,-1.5 -0.22,-2.98 -0.42,-4.46 -0.17,-1.27 -0.48,-2.53 -0.62,-3.81 -0.28,-2.41 -0.84,-5.5 0.62,-7.65 0.73,-1.08 2.17,-1.21 3.65,-1.1 2.39,0.18 4.78,0.51 7.14,-0.11 1.07,-0.29 2.13,-0.67 3.16,-1.11 1.04,-0.46 2.1,-1.28 3.17,-1.61 1.92,-0.58 1.96,2.38 2.21,3.69 0.35,1.84 0.28,3.73 0.26,5.59l0 0.11c0.02,0.33 0.03,1.35 0.11,2.83 0.01,0.22 0.03,0.45 0.03,0.69 0.02,0.26 0.04,0.51 0.06,0.77l0.02 0.18c0.07,1.33 -1.38,1.01 -0.99,4.99 0.52,5.39 2.84,11.24 4.78,13.96 2.67,3.73 -0.34,5.21 -0.34,5.21z"/>
  <path class="fil41" d="M273.31 294.39c0.11,0.18 0.24,0.36 0.36,0.54 2.67,3.73 -0.34,5.21 -0.34,5.21 0,0 -0.42,0.27 -1.12,0.62 -0.34,0.16 -0.75,0.35 -1.2,0.53 -1.35,0.53 -3.09,0.96 -4.73,0.71 -0.35,-0.06 -0.68,-0.15 -1,-0.26 3.23,0.28 6.62,-1.93 6.62,-1.93 0,0 3.02,-1.46 0.35,-5.21 -1.95,-2.72 -2.98,-7.46 -3.51,-12.85 -0.01,-0.18 0.02,-0.46 0.15,-0.78l0 -0.02 4.42 13.44z"/>
  <path class="fil27" d="M252.9 281.6c-0.06,-0.73 -0.15,-1.46 -0.24,-2.19 -0.17,-1.28 -0.48,-2.53 -0.62,-3.81 -0.28,-2.41 -0.84,-5.5 0.62,-7.65 0.73,-1.08 2.17,-1.21 3.65,-1.1 0.29,0.02 0.6,0.06 0.9,0.08 -0.15,-0.77 -0.86,-1.68 -1.48,-1.81l-0.13 -0.02c-0.62,-0.04 -1.24,-0.09 -1.88,-0.15 -1.48,-0.11 -2.92,0.02 -3.65,1.1 -1.46,2.15 -0.9,5.24 -0.62,7.65 0.14,1.28 0.45,2.54 0.62,3.81 0.2,1.48 0.33,2.96 0.42,4.46l2.41 -0.37z"/>
  <path class="fil28" d="M252.66 279.41c-0.17,-1.28 -0.48,-2.53 -0.62,-3.81 -0.27,-2.39 -0.83,-5.45 0.59,-7.6 -0.2,-1.33 -0.56,-2.88 -1.91,-2.58 -0.25,0.16 -0.47,0.36 -0.65,0.63 -1.46,2.15 -0.9,5.24 -0.62,7.65 0.14,1.28 0.45,2.54 0.62,3.81 0.2,1.48 0.33,2.96 0.42,4.46l2.41 -0.37c-0.06,-0.73 -0.15,-1.46 -0.24,-2.19z"/>
  <path class="fil27" d="M269.16 264.28c-0.85,0.4 -1.71,0.98 -2.55,1.35 -0.46,0.2 -0.91,0.38 -1.39,0.55 -0.62,-1.45 -1.28,-2.03 -1.64,-2.27 0.14,-0.05 0.29,-0.13 0.44,-0.18 1.04,-0.46 2.1,-1.28 3.17,-1.61 1.34,-0.4 1.76,0.9 1.97,2.16z"/>
  <path class="fil26" d="M264.3 299.34c-2.63,-8.55 -5.71,-15.09 -5.71,-15.09 0,0 -1.62,-1.87 -2.6,-1.9 1.09,2.53 3.92,9.27 5.71,15.08 0.81,2.65 2.23,3.91 3.8,4.4 -0.47,-0.65 -0.89,-1.46 -1.2,-2.49z"/>
  <path class="fil29" d="M255.09 287.18c-0.49,-0.08 -1.03,-0.67 -1.32,-1.43 -0.37,-0.98 -0.23,-1.94 0.31,-2.15 0.09,-0.03 0.2,-0.04 0.32,-0.02 0.49,0.08 1.03,0.67 1.32,1.43 0.18,0.49 0.24,0.98 0.18,1.39 -0.06,0.39 -0.24,0.66 -0.49,0.76 -0.1,0.03 -0.21,0.04 -0.32,0.02z"/>
  <path class="fil42" d="M254.88 287.15c-0.46,-0.07 -0.97,-0.63 -1.24,-1.34 -0.35,-0.92 -0.22,-1.82 0.29,-2.01 0.09,-0.04 0.19,-0.05 0.3,-0.03 0.46,0.08 0.97,0.63 1.24,1.35 0.16,0.45 0.22,0.91 0.16,1.3 -0.05,0.37 -0.21,0.62 -0.45,0.71 -0.09,0.03 -0.19,0.04 -0.3,0.02z"/>
  <path class="fil31" d="M254.79 286.72c-0.34,-0.06 -0.71,-0.47 -0.92,-1 -0.25,-0.68 -0.15,-1.35 0.22,-1.49l0.22 -0.02c0.34,0.06 0.72,0.47 0.92,1 0.13,0.33 0.17,0.67 0.12,0.96 -0.04,0.27 -0.16,0.46 -0.33,0.53l-0.23 0.02z"/>
  <path class="fil43" d="M254.31 285.61c-0.22,-0.58 -0.18,-1.14 0.06,-1.38l-0.06 -0.02 -0.22 0.02c-0.37,0.14 -0.47,0.81 -0.22,1.49 0.21,0.53 0.58,0.94 0.92,1l0.23 -0.02 0.15 -0.11c-0.33,-0.09 -0.67,-0.48 -0.86,-0.98z"/>
  <path class="fil29" d="M257.34 293.81c-0.49,-0.08 -1.03,-0.67 -1.32,-1.43 -0.37,-0.98 -0.23,-1.95 0.31,-2.15 0.1,-0.03 0.2,-0.04 0.32,-0.02 0.49,0.08 1.03,0.67 1.32,1.43 0.18,0.49 0.24,0.98 0.18,1.39 -0.06,0.39 -0.23,0.66 -0.49,0.76 -0.1,0.03 -0.2,0.04 -0.32,0.02z"/>
  <path class="fil42" d="M257.13 293.78c-0.46,-0.07 -0.97,-0.63 -1.24,-1.34 -0.34,-0.92 -0.22,-1.82 0.29,-2.01 0.09,-0.04 0.19,-0.05 0.3,-0.03 0.46,0.08 0.97,0.63 1.24,1.35 0.17,0.45 0.23,0.91 0.17,1.3 -0.06,0.37 -0.22,0.62 -0.46,0.71 -0.09,0.03 -0.19,0.04 -0.3,0.02z"/>
  <path class="fil31" d="M257.04 293.35c-0.34,-0.06 -0.71,-0.47 -0.91,-1 -0.26,-0.68 -0.16,-1.35 0.21,-1.49l0.22 -0.02c0.34,0.06 0.72,0.47 0.92,1 0.13,0.33 0.17,0.67 0.13,0.96 -0.05,0.27 -0.17,0.46 -0.34,0.53l-0.23 0.02z"/>
  <path class="fil43" d="M256.56 292.24c-0.21,-0.58 -0.18,-1.14 0.06,-1.38l-0.06 -0.02 -0.22 0.02c-0.37,0.14 -0.47,0.81 -0.21,1.49 0.2,0.53 0.57,0.94 0.91,1l0.23 -0.02 0.15 -0.11c-0.33,-0.09 -0.67,-0.48 -0.86,-0.98z"/>
  <path class="fil29" d="M259.38 299.23c-0.49,-0.08 -1.04,-0.68 -1.32,-1.44 -0.37,-0.98 -0.23,-1.94 0.3,-2.14 0.1,-0.04 0.21,-0.05 0.32,-0.03 0.49,0.08 1.04,0.67 1.32,1.44 0.18,0.48 0.25,0.97 0.18,1.38 -0.06,0.39 -0.23,0.66 -0.48,0.76 -0.1,0.04 -0.21,0.05 -0.32,0.03z"/>
  <path class="fil42" d="M259.16 299.2c-0.46,-0.08 -0.97,-0.63 -1.24,-1.35 -0.34,-0.92 -0.21,-1.82 0.29,-2.01 0.09,-0.03 0.2,-0.04 0.3,-0.03 0.46,0.08 0.97,0.63 1.24,1.35 0.17,0.45 0.23,0.91 0.17,1.3 -0.06,0.37 -0.22,0.62 -0.46,0.71 -0.09,0.04 -0.19,0.04 -0.3,0.03z"/>
  <path class="fil31" d="M259.08 298.76c-0.34,-0.06 -0.72,-0.47 -0.92,-1 -0.25,-0.68 -0.16,-1.35 0.21,-1.49l0.23 -0.02c0.34,0.06 0.72,0.47 0.92,1 0.12,0.34 0.17,0.68 0.12,0.96 -0.04,0.28 -0.16,0.46 -0.34,0.53l-0.22 0.02z"/>
  <path class="fil43" d="M258.6 297.65c-0.22,-0.57 -0.18,-1.13 0.06,-1.38l-0.06 -0.02 -0.23 0.02c-0.37,0.14 -0.46,0.81 -0.21,1.49 0.2,0.53 0.58,0.94 0.92,1l0.22 -0.02 0.15 -0.11c-0.32,-0.09 -0.67,-0.48 -0.85,-0.98z"/>
  <path class="fil29" d="M262.08 304.17c-0.5,0.01 -1.14,-0.48 -1.56,-1.18 -0.54,-0.89 -0.58,-1.86 -0.09,-2.16 0.09,-0.05 0.19,-0.08 0.31,-0.08 0.49,-0.01 1.14,0.47 1.56,1.17 0.26,0.44 0.42,0.91 0.43,1.32 0.01,0.4 -0.11,0.7 -0.34,0.84 -0.09,0.06 -0.19,0.08 -0.31,0.09z"/>
  <path class="fil42" d="M261.87 304.18c-0.47,0.01 -1.07,-0.45 -1.47,-1.1 -0.51,-0.84 -0.54,-1.75 -0.08,-2.03 0.08,-0.05 0.18,-0.08 0.29,-0.08 0.46,-0.01 1.06,0.44 1.46,1.1 0.25,0.41 0.39,0.85 0.4,1.24 0.02,0.38 -0.1,0.66 -0.31,0.79 -0.09,0.05 -0.19,0.07 -0.29,0.08z"/>
  <path class="fil31" d="M261.7 303.76c-0.34,0.01 -0.79,-0.33 -1.08,-0.81 -0.38,-0.63 -0.41,-1.3 -0.07,-1.51l0.22 -0.06c0.34,0 0.79,0.33 1.08,0.82 0.19,0.3 0.3,0.63 0.3,0.92 0.01,0.28 -0.07,0.49 -0.23,0.58l-0.22 0.06z"/>
  <path class="fil43" d="M261.02 302.76c-0.31,-0.52 -0.38,-1.08 -0.19,-1.37l-0.06 -0.01 -0.22 0.06c-0.34,0.21 -0.31,0.88 0.07,1.51 0.29,0.48 0.74,0.82 1.08,0.81l0.22 -0.06 0.13 -0.13c-0.34,-0.03 -0.75,-0.35 -1.03,-0.81z"/>
  <path class="fil29" d="M270.35 278.75c0.48,0.12 0.98,0.75 1.21,1.53 0.28,1.01 0.07,1.96 -0.48,2.12 -0.1,0.03 -0.21,0.03 -0.32,0 -0.48,-0.12 -0.98,-0.75 -1.2,-1.54 -0.15,-0.49 -0.17,-0.99 -0.07,-1.39 0.09,-0.39 0.28,-0.65 0.54,-0.72 0.1,-0.03 0.21,-0.03 0.32,0z"/>
  <path class="fil42" d="M270.56 278.79c0.45,0.12 0.92,0.71 1.13,1.45 0.27,0.94 0.07,1.83 -0.44,1.98 -0.1,0.02 -0.2,0.02 -0.31,0 -0.45,-0.12 -0.91,-0.71 -1.12,-1.45 -0.14,-0.46 -0.16,-0.92 -0.07,-1.3 0.09,-0.37 0.27,-0.61 0.51,-0.68 0.1,-0.02 0.2,-0.02 0.3,0z"/>
  <path class="fil31" d="M270.61 279.24c0.34,0.08 0.68,0.52 0.84,1.06 0.2,0.7 0.05,1.36 -0.33,1.47l-0.23 0c-0.33,-0.08 -0.67,-0.52 -0.83,-1.06 -0.1,-0.35 -0.12,-0.69 -0.05,-0.97 0.06,-0.27 0.2,-0.45 0.38,-0.5l0.22 0z"/>
  <path class="fil43" d="M271.01 280.38c0.17,0.59 0.09,1.14 -0.17,1.37l0.05 0.02 0.23 0c0.38,-0.11 0.53,-0.77 0.33,-1.47 -0.16,-0.54 -0.5,-0.98 -0.84,-1.06l-0.22 0 -0.16 0.09c0.31,0.12 0.63,0.54 0.78,1.05z"/>
  <path class="fil29" d="M276.21 295.74c0.49,0.05 1.07,0.6 1.4,1.35 0.43,0.95 0.35,1.92 -0.17,2.16 -0.1,0.04 -0.2,0.05 -0.32,0.04 -0.49,-0.05 -1.07,-0.6 -1.4,-1.35 -0.21,-0.47 -0.31,-0.96 -0.27,-1.37 0.04,-0.4 0.19,-0.68 0.44,-0.79 0.1,-0.04 0.2,-0.06 0.32,-0.04z"/>
  <path class="fil42" d="M276.42 295.75c0.47,0.05 1.01,0.57 1.32,1.27 0.4,0.9 0.33,1.8 -0.16,2.03 -0.09,0.03 -0.19,0.05 -0.3,0.04 -0.46,-0.05 -1.01,-0.57 -1.32,-1.27 -0.2,-0.44 -0.28,-0.9 -0.25,-1.29 0.04,-0.37 0.18,-0.63 0.41,-0.73 0.09,-0.04 0.19,-0.06 0.3,-0.05z"/>
  <path class="fil31" d="M276.53 296.18c0.35,0.04 0.75,0.43 0.98,0.95 0.3,0.66 0.24,1.33 -0.12,1.49l-0.22 0.04c-0.34,-0.04 -0.75,-0.43 -0.98,-0.94 -0.15,-0.33 -0.21,-0.67 -0.18,-0.96 0.02,-0.27 0.13,-0.47 0.3,-0.54l0.22 -0.04z"/>
  <path class="fil43" d="M277.08 297.26c0.25,0.56 0.25,1.12 0.03,1.38l0.06 0.02 0.22 -0.04c0.36,-0.16 0.42,-0.83 0.12,-1.49 -0.23,-0.52 -0.63,-0.91 -0.98,-0.95l-0.22 0.04 -0.14 0.11c0.33,0.07 0.7,0.44 0.91,0.93z"/>
  <path class="fil29" d="M274.69 290.27c0.48,0.11 1,0.72 1.26,1.49 0.33,1 0.16,1.95 -0.39,2.13 -0.1,0.03 -0.21,0.04 -0.32,0.02 -0.49,-0.1 -1.01,-0.72 -1.26,-1.49 -0.17,-0.49 -0.21,-0.98 -0.13,-1.39 0.07,-0.39 0.26,-0.66 0.51,-0.74 0.1,-0.03 0.21,-0.04 0.33,-0.02z"/>
  <path class="fil42" d="M274.9 290.31c0.45,0.1 0.94,0.67 1.18,1.4 0.31,0.93 0.15,1.82 -0.36,1.99 -0.1,0.03 -0.2,0.04 -0.3,0.02 -0.46,-0.1 -0.95,-0.67 -1.19,-1.4 -0.15,-0.46 -0.19,-0.92 -0.12,-1.3 0.07,-0.37 0.25,-0.61 0.49,-0.69 0.09,-0.03 0.19,-0.04 0.3,-0.02z"/>
  <path class="fil31" d="M274.96 290.75c0.34,0.07 0.7,0.5 0.88,1.04 0.23,0.69 0.11,1.35 -0.27,1.48l-0.22 0.01c-0.34,-0.07 -0.7,-0.5 -0.88,-1.04 -0.11,-0.34 -0.14,-0.68 -0.09,-0.96 0.06,-0.28 0.18,-0.46 0.36,-0.52l0.22 -0.01z"/>
  <path class="fil43" d="M275.4 291.88c0.2,0.58 0.14,1.14 -0.11,1.38l0.06 0.02 0.22 -0.01c0.38,-0.13 0.5,-0.79 0.27,-1.48 -0.18,-0.54 -0.54,-0.97 -0.88,-1.04l-0.22 0.01 -0.15 0.11c0.32,0.1 0.65,0.5 0.81,1.01z"/>
  <path class="fil29" d="M272.72 284.93c0.49,0.07 1.04,0.65 1.34,1.41 0.39,0.97 0.27,1.94 -0.26,2.15 -0.1,0.04 -0.21,0.05 -0.32,0.03 -0.49,-0.07 -1.05,-0.65 -1.35,-1.41 -0.19,-0.48 -0.26,-0.97 -0.21,-1.38 0.06,-0.4 0.23,-0.67 0.48,-0.77 0.1,-0.04 0.2,-0.05 0.32,-0.03z"/>
  <path class="fil42" d="M272.93 284.95c0.46,0.07 0.98,0.62 1.26,1.33 0.36,0.91 0.25,1.81 -0.25,2.01 -0.09,0.04 -0.19,0.05 -0.3,0.03 -0.46,-0.07 -0.98,-0.61 -1.26,-1.32 -0.18,-0.45 -0.25,-0.91 -0.19,-1.3 0.05,-0.37 0.2,-0.62 0.44,-0.72 0.09,-0.03 0.19,-0.04 0.3,-0.03z"/>
  <path class="fil31" d="M273.02 285.39c0.34,0.05 0.73,0.45 0.94,0.98 0.27,0.68 0.18,1.35 -0.19,1.49l-0.22 0.03c-0.34,-0.05 -0.73,-0.46 -0.93,-0.99 -0.14,-0.33 -0.19,-0.67 -0.15,-0.95 0.04,-0.28 0.16,-0.47 0.33,-0.54l0.22 -0.02z"/>
  <path class="fil43" d="M273.53 286.49c0.22,0.57 0.2,1.13 -0.04,1.38l0.06 0.02 0.22 -0.03c0.37,-0.14 0.46,-0.81 0.19,-1.49 -0.21,-0.53 -0.6,-0.93 -0.94,-0.98l-0.22 0.02 -0.15 0.11c0.33,0.09 0.68,0.47 0.88,0.97z"/>
  <path class="fil33" d="M265.22 266.18c-0.58,0.21 -1.17,0.4 -1.77,0.56 -2.06,0.55 -4.15,0.37 -6.24,0.19 -0.15,-0.77 -0.86,-1.68 -1.48,-1.81l-0.13 -0.02c-0.24,0 0.56,-0.42 0.56,-0.42 6.67,-1.28 7.05,-0.93 7.05,-0.93 0,0 0.13,0.02 0.37,0.16 0.36,0.24 1.02,0.82 1.64,2.27z"/>
  <path class="fil44" d="M265.49 276.22l-3.03 1.37 -4.72 0.45c0,0 0.16,-7.24 -0.52,-11.04l-0.01 -0.07c2.09,0.18 4.18,0.36 6.24,-0.19 0.6,-0.16 1.19,-0.35 1.77,-0.56 0.57,1.29 0.27,10.04 0.27,10.04z"/>
  <path class="fil24" d="M254.45 284.25c0,0 9.36,-2.06 18.35,1.16 1.33,0.95 0.75,2.48 0.75,2.48 0,0 -9.13,-2.22 -18.66,-1.25 -0.71,-1.09 -0.44,-2.39 -0.44,-2.39z"/>
  <path class="fil35" d="M258.51 296.25c0,0 8.67,-1.64 18.26,-0.09 1.33,0.95 0.34,2.48 0.34,2.48 0,0 -8.7,-0.95 -18.23,0.02 -0.71,-1.09 -0.37,-2.41 -0.37,-2.41z"/>
  <path class="fil24" d="M260.55 301.44c0,0 4.55,-6.45 14.19,-10.68 1.33,0.95 0.82,2.37 0.63,2.55 0,0 -3.83,1.74 -13.55,10.37 -0.23,-0.37 -0.61,-0.59 -0.8,-0.93 -0.37,-0.65 -0.47,-1.31 -0.47,-1.31z"/>
  <path class="fil35" d="M258.37 296.27c0,0 4.79,-6.63 14.43,-10.86 1.33,0.95 0.81,2.27 0.75,2.48 0,0 -4.98,2.16 -14.69,10.79 -0.71,-1.09 -0.49,-2.41 -0.49,-2.41z"/>
  <path class="fil35" d="M256.42 290.88c0,0 4.23,-7.43 13.87,-11.66 1.33,0.95 0.83,2.29 0.83,2.29 0,0 -4.22,3.2 -13.93,11.83 -0.71,-1.09 -0.77,-2.46 -0.77,-2.46z"/>
  <path class="fil24" d="M254.31 284.21c0,0 5.42,-4.12 15.98,-4.99 1.33,0.95 0.83,2.55 0.83,2.55 0,0 -7.2,0.32 -16.23,4.87 -0.71,-1.09 -0.58,-2.43 -0.58,-2.43z"/>
  <path class="fil24" d="M256.48 290.85c0,0 8.67,-1.64 18.26,-0.09 1.33,0.96 0.63,2.55 0.63,2.55 0,0 -8.65,-0.94 -18.18,0.03 -0.71,-1.09 -0.71,-2.49 -0.71,-2.49z"/>
  <path class="fil28" d="M292.2 321.95c0.06,1.4 -0.16,3.34 -1.03,4.49 -0.41,0.54 -1.24,1.45 -2,1.42 -0.68,-0.03 -1.13,-0.62 -1.44,-1.15 -0.32,-0.57 -0.9,-0.88 -1.57,-0.96 -0.3,-0.04 -0.6,0.02 -0.89,0.09 -1.46,0.33 -2.92,0.58 -4.3,1.16 -0.98,0.41 -2.02,0.54 -2.82,1.34 -0.99,1 -1.6,2.31 -2.75,3.18 -1.12,0.84 -2.72,1.33 -4.09,0.97 -1.47,-0.4 -2.86,-0.98 -4.19,-1.67 -0.59,0.98 -0.89,2.06 -0.77,3.3l0.1 0.18c0.2,0.32 0.4,0.62 0.6,0.93 1.38,0.72 2.81,1.31 4.33,1.72 1.27,0.34 2.57,0.54 3.88,0.6 2.22,0.09 4.44,-0.37 6.59,-0.96 3.11,-0.87 7.09,-2.25 8.99,-5.08 1.87,-2.78 1.51,-6.32 1.36,-9.56z"/>
  <path class="fil28" d="M327.28 312.6c0.06,1.4 -0.16,3.35 -1.04,4.5 -0.41,0.54 -1.24,1.45 -1.99,1.41 -0.69,-0.02 -1.14,-0.61 -1.44,-1.15 -0.33,-0.57 -0.91,-0.88 -1.58,-0.96 -0.29,-0.04 -0.59,0.03 -0.88,0.09 -1.47,0.33 -2.92,0.59 -4.31,1.16 -0.98,0.41 -2.02,0.54 -2.81,1.34 -1,1 -1.61,2.32 -2.76,3.18 -1.11,0.84 -2.71,1.34 -4.09,0.97 -1.8,-0.48 -3.48,-1.24 -5.08,-2.16 -0.06,1.45 0.1,2.9 0.42,4.28 0.14,0.21 0.27,0.42 0.41,0.62 1.37,0.72 2.81,1.32 4.32,1.72 1.27,0.34 2.57,0.54 3.88,0.6 2.23,0.09 4.44,-0.36 6.59,-0.96 3.12,-0.86 7.1,-2.25 9,-5.08 1.86,-2.77 1.5,-6.32 1.36,-9.56z"/>
  <path class="fil45" d="M197.81 185.34l2.5 -1.44 0.18 -0.1 1.3 1.12 -0.18 0.1 -2.5 1.45 0.6 0.52 2.98 -1.72 0.19 -0.11 1.31 1.16 -0.18 0.11 -5 2.88 -0.18 0.11 -5.09 -4.41 0.18 -0.11 4.88 -2.82 0.18 -0.1 1.33 1.15 -0.18 0.1 -2.86 1.65 0.54 0.46zm-52.65 27.57l0.1 -0.05 3.55 1.73 1.29 3.03 -0.09 0.05 -3.67 2.12 -0.09 0.05 -1.29 -3.03 -3.55 -1.73 0.09 -0.06 3.66 -2.11zm-4.31 2.49l0.09 -0.05 3.55 1.73 1.29 3.03 -0.09 0.06 -1.1 0.63 -0.09 0.05 -1.29 -3.03 -3.55 -1.73 0.09 -0.05 1.1 -0.64zm30.55 -15.58l0.54 0.46 2.49 -1.44 0.18 -0.1 1.3 1.12 -0.18 0.1 -2.5 1.45 0.61 0.52 2.98 -1.72 0.18 -0.11 1.31 1.16 -0.18 0.11 -4.99 2.88 -0.19 0.11 -5.09 -4.41 0.18 -0.11 4.89 -2.82 0.18 -0.11 1.32 1.16 -0.18 0.1 -2.85 1.65zm-15.14 14.31l-0.09 0.05 -0.09 0.06c-0.49,0.28 -1.04,0.53 -1.65,0.74 -0.5,0.16 -1.06,0.31 -1.63,0.37l-0.22 0.03 -0.74 -1.39 0.22 -0.03 -0.04 -0.08 0.26 -0.03c0.47,-0.06 0.93,-0.16 1.35,-0.29 0.38,-0.12 0.72,-0.26 1.03,-0.43 0.2,-0.12 0.4,-0.27 0.47,-0.41 0.05,-0.09 0.06,-0.18 -0.06,-0.25 -0.09,-0.05 -0.21,-0.04 -0.33,-0.01 -0.32,0.06 -0.67,0.18 -0.97,0.27 -0.42,0.15 -0.87,0.28 -1.32,0.39 -0.4,0.1 -0.83,0.14 -1.26,0.12 -0.51,-0.03 -0.94,-0.17 -1.3,-0.38 -0.45,-0.26 -0.74,-0.57 -0.84,-0.93 -0.11,-0.38 0.01,-0.75 0.27,-1.1 0.3,-0.41 0.77,-0.77 1.31,-1.08l0.1 -0.05 0.09 -0.05c0.42,-0.25 0.87,-0.46 1.38,-0.64 0.44,-0.16 0.91,-0.29 1.42,-0.35l0.21 -0.03 0.81 1.35 -0.23 0.03 0.05 0.08 -0.27 0.03c-0.37,0.05 -0.72,0.13 -1.05,0.24 -0.31,0.1 -0.59,0.22 -0.84,0.36l-0.01 0c-0.2,0.13 -0.4,0.28 -0.48,0.44 -0.04,0.1 -0.06,0.2 0.07,0.27 0.1,0.06 0.22,0.05 0.34,0.03 0.34,-0.07 0.69,-0.19 0.99,-0.29 0.42,-0.14 0.86,-0.28 1.3,-0.39 0.4,-0.1 0.82,-0.14 1.25,-0.12 0.49,0.02 0.91,0.16 1.26,0.36 0.45,0.26 0.74,0.57 0.83,0.94 0.11,0.37 -0.02,0.74 -0.27,1.09 -0.3,0.41 -0.78,0.77 -1.32,1.08zm7.03 -4.05l-0.09 0.05 -0.09 0.05c-0.58,0.33 -1.25,0.61 -2.02,0.76 -0.69,0.13 -1.4,0.16 -2.12,0.06 -0.71,-0.1 -1.33,-0.32 -1.85,-0.62 -0.69,-0.4 -1.19,-0.87 -1.45,-1.41 -0.24,-0.53 -0.22,-1.07 0.05,-1.59 0.29,-0.56 0.83,-1.04 1.54,-1.46l0.1 -0.05 0.09 -0.05c0.57,-0.33 1.24,-0.61 2.01,-0.76 0.7,-0.13 1.41,-0.16 2.12,-0.06 0.72,0.1 1.33,0.32 1.86,0.62 0.68,0.4 1.19,0.87 1.44,1.41 0.25,0.53 0.23,1.07 -0.05,1.59 -0.28,0.56 -0.83,1.05 -1.54,1.46zm-4.32 -3.11c-0.28,0.18 -0.48,0.38 -0.56,0.62 -0.09,0.25 -0.06,0.5 0.09,0.74 0.16,0.27 0.42,0.5 0.76,0.69 0.33,0.19 0.71,0.31 1.18,0.31 0.44,0 0.83,-0.13 1.14,-0.3 0.28,-0.17 0.48,-0.38 0.57,-0.62 0.09,-0.25 0.05,-0.5 -0.1,-0.74 -0.15,-0.27 -0.42,-0.5 -0.76,-0.69 -0.32,-0.19 -0.71,-0.31 -1.18,-0.31 -0.44,0 -0.82,0.13 -1.14,0.3zm11.86 -3.35l0.19 -0.1 1.34 1.18 -0.18 0.1 -4.74 2.74 -0.19 0.11 -5.09 -4.41 0.18 -0.11 1.87 -1.08 0.19 -0.11 3.74 3.24 2.69 -1.56zm6.93 -7.47l0.79 0.68 2.47 -1.43 0.19 -0.11 1.32 1.15 -0.18 0.11 -2.47 1.42 1.65 1.43 -0.18 0.11 -1.87 1.08 -0.19 0.11 -5.09 -4.42 0.18 -0.1 4.89 -2.82 0.18 -0.11 1.32 1.16 -0.18 0.1 -2.83 1.64zm8.71 -0.95l0.48 1.08 -0.19 0.1 -2.03 1.18 -0.18 0.1 -2.28 -6.03 0.18 -0.11 1.73 -1 0.18 -0.1 7.9 2.79 -0.18 0.1 -1.87 1.08 -0.18 0.11 -1.41 -0.54 -2.15 1.24zm-1.09 -2.47l0.44 1 0.87 -0.5 -1.31 -0.5zm7.82 -7.42l0.18 -0.1 2.38 5.98 -0.19 0.11 -1.72 0.99 -0.19 0.11 -7.81 -2.84 0.18 -0.11 1.92 -1.1 0.18 -0.11 4.18 1.54 -1.27 -3.22 0.18 -0.1 1.98 -1.15z"/>
 </g>
</svg>
