<?xml version="1.0" encoding="UTF-8"?>
<!DOCTYPE svg PUBLIC "-//W3C//DTD SVG 1.1//EN" "http://www.w3.org/Graphics/SVG/1.1/DTD/svg11.dtd">
<!-- Creator: Corel DESIGNER 2018 (64-Bit) -->
<svg xmlns="http://www.w3.org/2000/svg" xml:space="preserve" width="1280px" height="1280px" version="1.1" style="shape-rendering:geometricPrecision; text-rendering:geometricPrecision; image-rendering:optimizeQuality; fill-rule:evenodd; clip-rule:evenodd"
viewBox="0 0 227.23 227.23"
 xmlns:xlink="http://www.w3.org/1999/xlink">
 <defs>
  <style type="text/css">
   <![CDATA[
    .fil0 {fill:none}
    .fil1 {fill:#EA501F}
    .fil2 {fill:white}
   ]]>
  </style>
 </defs>
 <g id="Layer_x0020_1">
  <metadata id="CorelCorpID_0Corel-Layer"/>
  <rect class="fil0" width="227.23" height="227.23"/>
  <g id="_2350190167424">
   <path class="fil1" d="M45.79 60.19l35.9 0c1.1,-12.16 4.49,-23.07 9.35,-31.51 6.44,-11.16 15.59,-18.03 25.94,-18.03 10.35,0 19.45,6.92 25.94,18.03 4.86,8.39 8.25,19.35 9.34,31.51l35.86 0c4.24,0 8.06,3.48 7.72,7.73l-7.2 100.47c-0.9,12.58 -8.82,19.78 -20.31,19.78l-102.71 0c-12.77,0 -19.55,-8.91 -20.31,-19.78l-7.25 -100.42c-0.28,-4.25 3.48,-7.78 7.73,-7.78l0 0zm44.87 0l52.54 0c-1.05,-10.53 -3.95,-19.88 -8.1,-27.03 -4.77,-8.35 -11.26,-13.54 -18.12,-13.54 -6.92,0 -13.35,5.19 -18.22,13.59 -4.14,7.1 -7.01,16.49 -8.1,26.98z"/>
   <path class="fil2" d="M90.9 152.94c-1.67,-1.15 -2.1,-3.39 -0.96,-5.06 1.15,-1.67 3.39,-2.1 5.06,-0.95 1.05,0.71 2.14,1.43 3.33,2.14 8.4,5.11 16.12,7.63 22.56,7.63 5.82,0 10.54,-2.19 13.54,-6.62l0 0c0.19,-0.34 0.38,-0.53 0.43,-0.67 0.86,-1.39 1.48,-2.86 1.91,-4.29 0.85,-2.96 0.71,-6.01 -0.48,-8.78 -1.29,-2.91 -3.77,-5.72 -7.63,-8.06l0 0c-2.57,-1.57 -5.77,-2.95 -9.63,-4 -9.82,-2.77 -17.07,-6.68 -20.98,-11.92 -4.29,-5.77 -4.63,-12.73 -0.05,-21.17 3.05,-5.58 9.3,-9.06 17.21,-9.68 6.82,-0.53 15.02,1.09 23.37,5.34 1.81,0.9 2.53,3.1 1.57,4.91 -0.95,1.81 -3.1,2.53 -4.91,1.57 -7.1,-3.62 -13.88,-5 -19.5,-4.57 -5.39,0.42 -9.49,2.52 -11.3,5.86 -3.05,5.58 -3.01,9.97 -0.53,13.3 2.86,3.87 8.82,6.87 17.12,9.21 4.48,1.28 8.3,2.91 11.44,4.81l0 0c5.2,3.15 8.68,7.11 10.54,11.4 1.91,4.43 2.15,9.11 0.86,13.68 -0.57,2.05 -1.48,4.1 -2.72,6.11 -0.28,0.43 -0.47,0.76 -0.62,1l0 0c-4.43,6.53 -11.25,9.77 -19.55,9.82 -7.77,0 -16.83,-2.86 -26.36,-8.68 -1.2,-0.66 -2.44,-1.43 -3.72,-2.33z"/>
  </g>
 </g>
</svg>
