<?xml version="1.0" encoding="UTF-8"?>
<!DOCTYPE svg PUBLIC "-//W3C//DTD SVG 1.1//EN" "http://www.w3.org/Graphics/SVG/1.1/DTD/svg11.dtd">
<!-- Creator: Corel DESIGNER 2018 (64-Bit) -->
<svg xmlns="http://www.w3.org/2000/svg" xml:space="preserve" width="1280px" height="1280px" version="1.1" style="shape-rendering:geometricPrecision; text-rendering:geometricPrecision; image-rendering:optimizeQuality; fill-rule:evenodd; clip-rule:evenodd"
viewBox="0 0 401.23 401.23"
 xmlns:xlink="http://www.w3.org/1999/xlink">
 <defs>
  <style type="text/css">
   <![CDATA[
    .fil0 {fill:none}
    .fil1 {fill:#404040}
    .fil2 {fill:#4E9D4E}
    .fil3 {fill:#60BA54}
    .fil4 {fill:#83C466}
    .fil7 {fill:#FBF5AE}
    .fil6 {fill:#FFC767}
    .fil5 {fill:white}
   ]]>
  </style>
 </defs>
 <g id="Layer_x0020_1">
  <metadata id="CorelCorpID_0Corel-Layer"/>
  <rect class="fil0" width="401.23" height="401.23"/>
  <g id="_2384615700256">
   <path class="fil1" d="M274.16 86.65l33.36 0 31.26 0 1 0 10.53 0 0 10.54 0 0.99 0 34.33 0 131.27c0,26.6 -10.87,50.78 -28.4,68.3 -17.52,17.52 -41.7,28.4 -68.3,28.4l-53 0 -139.16 0 -10.54 0 0 -10.53 0 -244.33 0 -3.5 0 -3.94 0 -0.99 0 -10.54 10.54 0 0.99 0 12.34 0 52.28 0c2.12,-16.7 9.8,-31.67 21.13,-42.99 13.41,-13.42 31.95,-21.72 52.42,-21.72 20.48,0 39.01,8.3 52.43,21.72 11.32,11.32 19,26.29 21.12,42.99zm-128.27 0.61l0 0c8.69,0.75 17.01,2.17 24.9,4.18 10.76,2.74 20.74,6.58 29.82,11.31 9.09,-4.73 19.07,-8.57 29.82,-11.31 7.89,-2.01 16.21,-3.43 24.9,-4.18 -1.88,-11.77 -7.47,-22.3 -15.53,-30.36 -10.03,-10.03 -23.88,-16.24 -39.19,-16.24 -15.3,0 -29.16,6.21 -39.19,16.24 -8.06,8.06 -13.64,18.59 -15.53,30.36z"/>
   <g>
    <path class="fil2" d="M269.57 97.19l69.21 0c0.55,0 1,0.44 1,0.99l0 165.6c0,47.39 -38.78,86.17 -86.17,86.17l-53 0 0 -235.21c18.64,-10.82 42.09,-17.55 68.96,-17.55z"/>
    <path class="fil3" d="M131.66 97.19l-69.22 0c-0.55,0 -0.99,0.44 -0.99,0.99 0,83.92 0,167.84 0,251.77 46.39,0 92.77,0 139.16,0l0 -235.21c-18.63,-10.82 -42.09,-17.55 -68.95,-17.55z"/>
   </g>
   <path class="fil3" d="M308.63 329.96c-14.95,12.46 -34.15,19.99 -55.02,19.99l-53 0 0 -91.17c47.87,0.22 89.09,29.31 108.02,71.18z"/>
   <path class="fil4" d="M84.45 349.95l116.16 0 0 -91.17c-0.18,0 -0.36,-0.01 -0.55,-0.01 -55.4,0 -102,38.68 -115.61,91.18z"/>
   <g>
    <path class="fil1" d="M135.67 130.75c19.44,0 37.05,7.88 49.79,20.63 6.41,6.41 11.59,14.05 15.15,22.53 3.57,-8.48 8.75,-16.12 15.16,-22.53 12.74,-12.75 30.34,-20.63 49.79,-20.63 19.44,0 37.05,7.88 49.79,20.63 12.74,12.74 20.62,30.34 20.62,49.79 0,19.44 -7.88,37.04 -20.62,49.79 -12.74,12.74 -30.35,20.62 -49.79,20.62 -10.13,0 -19.76,-2.14 -28.47,-5.99l-3.43 3.43 -27.81 27.81 -5.79 5.79 -5.79 -5.79 -27.81 -27.81 -3.1 -3.1c-8.5,3.64 -17.86,5.66 -27.69,5.66 -19.44,0 -37.05,-7.88 -49.79,-20.62 -12.74,-12.75 -20.63,-30.35 -20.63,-49.79 0,-19.45 7.89,-37.05 20.63,-49.79 12.74,-12.75 30.35,-20.63 49.79,-20.63zm73.2 112.19l0 0c-3.3,-4.47 -6.08,-9.34 -8.26,-14.52 -2.13,5.09 -4.85,9.87 -8.07,14.27 2.46,-0.44 4.97,-0.66 7.52,-0.66 3,0 5.95,0.31 8.81,0.91z"/>
    <path class="fil5" d="M265.56 141.28c33.07,0 59.88,26.81 59.88,59.89 0,33.07 -26.81,59.88 -59.88,59.88 -33.07,0 -59.89,-26.81 -59.89,-59.88 0,-33.08 26.82,-59.89 59.89,-59.89z"/>
    <path class="fil5" d="M135.67 141.28c33.07,0 59.88,26.81 59.88,59.89 0,33.07 -26.81,59.88 -59.88,59.88 -33.07,0 -59.89,-26.81 -59.89,-59.88 0,-33.08 26.82,-59.89 59.89,-59.89z"/>
    <path class="fil1" d="M142.25 163.32c20.9,0 37.85,16.94 37.85,37.85 0,20.9 -16.95,37.84 -37.85,37.84 -20.9,0 -37.84,-16.94 -37.84,-37.84 0,-6.87 1.82,-13.31 5.02,-18.86 2.47,7.33 9.4,12.61 17.57,12.61 10.24,0 18.54,-8.29 18.54,-18.53 0,-5.07 -2.04,-9.67 -5.34,-13.01 0.68,-0.04 1.36,-0.06 2.05,-0.06z"/>
    <path class="fil1" d="M257.66 163.32c20.9,0 37.84,16.94 37.84,37.85 0,20.9 -16.94,37.84 -37.84,37.84 -20.9,0 -37.85,-16.94 -37.85,-37.84 0,-6.87 1.83,-13.31 5.03,-18.86 2.47,7.33 9.4,12.61 17.57,12.61 10.23,0 18.53,-8.29 18.53,-18.53 0,-5.07 -2.03,-9.67 -5.33,-13.01 0.68,-0.04 1.36,-0.06 2.05,-0.06z"/>
    <path class="fil6" d="M200.06 250.22c10.94,0 20.82,4.99 27.81,13.01l-27.81 27.81 0 -40.82z"/>
    <path class="fil7" d="M200.06 291.04l-27.81 -27.81c7,-8.02 16.87,-13.01 27.81,-13.01l0 40.82z"/>
   </g>
  </g>
 </g>
</svg>
