<?xml version="1.0" encoding="utf-8"?>
<!-- Generator: Adobe Illustrator 19.0.0, SVG Export Plug-In . SVG Version: 6.00 Build 0)  -->
<svg version="1.1" id="Layer_1" xmlns="http://www.w3.org/2000/svg" xmlns:xlink="http://www.w3.org/1999/xlink" x="0px" y="0px"
	 viewBox="0 0 500 500" style="enable-background:new 0 0 500 500;" xml:space="preserve">
<style type="text/css">
	.st0{fill-rule:evenodd;clip-rule:evenodd;fill:url(#SVGID_1_);}
	.st1{fill-rule:evenodd;clip-rule:evenodd;fill:#FFFFFF;}
</style>
<g>
	
		<linearGradient id="SVGID_1_" gradientUnits="userSpaceOnUse" x1="0.1898" y1="2.239383e-003" x2="0.8147" y2="2.239383e-003" gradientTransform="matrix(0 -584.0447 -584.0447 0 251.3079 543.3304)">
		<stop  offset="0" style="stop-color:#25CF43"/>
		<stop  offset="1" style="stop-color:#61FD7D"/>
	</linearGradient>
	<path class="st0" d="M432.5,339.9c0,2-0.1,6.3-0.2,9.7c-0.3,8.2-0.9,18.8-1.9,23.6c-1.5,7.2-3.7,14.1-6.6,19.8
		c-3.4,6.7-7.8,12.8-13,18c-5.2,5.2-11.2,9.6-17.9,13c-5.7,2.9-12.6,5.1-19.9,6.6c-4.8,1-15.3,1.6-23.4,1.9
		c-3.4,0.1-7.7,0.2-9.7,0.2l-179.7,0c-2,0-6.3-0.1-9.7-0.2c-8.2-0.3-18.8-0.9-23.6-1.9c-7.2-1.5-14.1-3.7-19.8-6.6
		c-6.7-3.4-12.8-7.8-18-13c-5.2-5.2-9.6-11.2-13-17.9c-2.9-5.7-5.1-12.6-6.6-19.9c-1-4.8-1.6-15.3-1.9-23.4
		c-0.1-3.4-0.2-7.7-0.2-9.7l0-179.7c0-2,0.1-6.3,0.2-9.7c0.3-8.2,0.9-18.8,1.9-23.6c1.5-7.2,3.7-14.1,6.6-19.8
		c3.4-6.7,7.8-12.8,13-18c5.2-5.2,11.2-9.6,17.9-13c5.7-2.9,12.6-5.1,19.9-6.6c4.8-1,15.3-1.6,23.4-1.9c3.4-0.1,7.7-0.2,9.7-0.2
		l179.7,0c2,0,6.3,0.1,9.7,0.2c8.2,0.3,18.8,0.9,23.6,1.9c7.2,1.5,14.1,3.7,19.8,6.6c6.7,3.4,12.8,7.8,18,13
		c5.2,5.2,9.6,11.2,13,17.9c2.9,5.7,5.1,12.6,6.6,19.9c1,4.8,1.6,15.3,1.9,23.4c0.1,3.4,0.2,7.7,0.2,9.7L432.5,339.9z"/>
	<path class="st1" d="M346,154.9c-24.6-24.6-57.2-38.1-92-38.1c-71.7,0-130.1,58.3-130.1,130.1c0,22.9,6,45.3,17.4,65l-18.5,67.4
		l69-18.1c19,10.4,40.4,15.8,62.2,15.8h0.1h0c71.7,0,130.1-58.4,130.1-130.1C384.1,212.1,370.6,179.5,346,154.9z M254,355L254,355
		c-19.4,0-38.5-5.2-55.1-15.1l-3.9-2.3L154,348.3l10.9-39.9l-2.6-4.1c-10.8-17.2-16.5-37.1-16.5-57.5c0-59.6,48.5-108.1,108.2-108.1
		c28.9,0,56,11.3,76.5,31.7c20.4,20.4,31.7,47.6,31.6,76.5C362.1,306.5,313.6,355,254,355z M313.3,274c-3.3-1.6-19.2-9.5-22.2-10.6
		c-3-1.1-5.1-1.6-7.3,1.6c-2.2,3.3-8.4,10.6-10.3,12.7c-1.9,2.2-3.8,2.4-7,0.8c-3.3-1.6-13.7-5.1-26.1-16.1
		c-9.7-8.6-16.2-19.3-18.1-22.5c-1.9-3.3-0.2-5,1.4-6.6c1.5-1.5,3.3-3.8,4.9-5.7c1.6-1.9,2.2-3.3,3.3-5.4c1.1-2.2,0.5-4.1-0.3-5.7
		c-0.8-1.6-7.3-17.6-10-24.1c-2.6-6.3-5.3-5.5-7.3-5.6c-1.9-0.1-4.1-0.1-6.2-0.1c-2.2,0-5.7,0.8-8.7,4.1c-3,3.3-11.4,11.1-11.4,27.1
		c0,16,11.6,31.4,13.3,33.6c1.6,2.2,22.9,35,55.5,49.1c7.8,3.3,13.8,5.3,18.5,6.8c7.8,2.5,14.9,2.1,20.5,1.3
		c6.2-0.9,19.2-7.9,21.9-15.5c2.7-7.6,2.7-14.1,1.9-15.5C318.7,276.5,316.5,275.7,313.3,274z"/>
</g>
</svg>
